<svg width="183" height="48" viewBox="0 0 183 48" fill="none" xmlns="http://www.w3.org/2000/svg">
<path d="M34.2422 10.6769C34.2422 10.6769 30.9691 10.6769 26.6248 10.6769C27.9935 6.45162 29.0647 3.29755 29.0647 3.29755C29.1242 3 28.8862 3 28.8862 3H25.018C25.018 3 24.78 3.05951 24.7205 3.29755C24.7205 3.29755 23.6493 6.39211 22.221 10.6174C20.4357 10.6174 18.5313 10.6174 16.6865 10.6174C18.1148 6.39211 19.1264 3.29755 19.1264 3.29755C19.2455 3 19.0074 3 19.0074 3H15.1392C15.1392 3 14.8417 3.05951 14.7822 3.29755C14.7822 3.29755 13.7705 6.39211 12.3422 10.6174C8.41452 10.5579 5.37947 10.5579 4.78437 10.5579C4.54632 10.5579 4.48681 10.7959 4.48681 10.7959L3.17758 14.7236C3.17758 14.7236 3.05856 14.9616 3.35611 14.9616C4.24877 14.9616 7.16479 14.9616 10.8545 14.9616C10.2593 16.866 9.54522 18.8894 8.8906 20.7937C5.14143 20.7937 2.22541 20.7937 1.6303 20.7937C1.39226 20.7937 1.33275 20.9722 1.33275 20.9722L0.0235104 24.8999C0.0235104 24.8999 -0.095511 25.138 0.202042 25.138C1.03519 25.138 3.89171 25.138 7.46235 25.138C6.15311 29.0657 5.14143 32.1602 4.90339 32.8149C4.84388 33.0529 5.02241 32.9934 5.02241 32.9934H9.00963C9.00963 32.9934 9.18816 33.0529 9.30718 32.7553C9.54522 31.8627 10.5569 28.8871 11.8066 25.138C13.6515 25.1975 15.5558 25.1975 17.3411 25.1975C16.0319 29.1252 15.0202 32.1602 14.8417 32.8149C14.7227 33.0529 14.9607 32.9934 14.9607 32.9934H18.8884C18.8884 32.9934 19.1264 33.0529 19.186 32.7553C19.4835 31.8627 20.4952 28.9467 21.7449 25.1975C26.2082 25.1975 29.6003 25.1975 29.6003 25.1975C29.8979 25.1975 30.0169 24.9594 30.0169 24.9594L31.2666 21.0913C31.2666 21.0913 31.3261 20.8532 31.0881 20.8532C31.0881 20.8532 27.696 20.8532 23.1732 20.8532C23.8278 18.8894 24.4824 16.9255 25.137 15.0212C29.4813 15.0212 32.7544 15.0212 32.7544 15.0212C33.0519 15.0212 33.171 14.7831 33.171 14.7831L34.4207 10.9149C34.4207 10.9149 34.4802 10.6769 34.2422 10.6769ZM18.8289 20.8532C16.9841 20.7937 15.0797 20.7937 13.2944 20.7937C13.949 18.8894 14.6036 16.866 15.1987 14.9616C17.0436 14.9616 18.9479 14.9616 20.7927 15.0212C20.1381 16.9255 19.4835 18.8894 18.8289 20.8532Z" fill="white"/>
<path d="M51.048 6.96C51.048 4.944 51.048 4.824 51.048 4.8C51.048 4.8 55.152 5.496 56.952 4.752C59.736 3.576 58.776 0.912 58.776 0.912C58.728 0.792 58.584 0.792 58.584 0.792C54.384 0.383999 50.064 0.36 45.864 0.792C45.864 0.792 45.744 0.792 45.744 0.912L45.72 11.736C45.72 14.784 47.52 18.528 52.632 18.528C57.624 18.528 60.096 15.936 60.096 12.216C60.096 8.808 56.808 6.072 51.048 6.96ZM52.992 15.624C51.552 15.624 51.072 14.304 51.048 13.176V9.84C53.28 9.408 54.936 10.176 54.936 12.696C54.936 14.04 54.312 15.624 52.992 15.624ZM77.2001 17.88C77.2001 17.88 73.8641 6.768 72.8561 3.936C71.9201 1.32 70.1441 0.167999 68.3921 0.167999C67.0001 0.167999 65.2721 0.887999 64.9601 1.824C64.7681 2.376 66.0641 2.424 65.0801 4.944C65.0801 4.968 60.9521 17.88 60.9521 17.88C60.8801 18 61.0001 18 61.0001 18H66.0161C66.0161 18 66.1361 18 66.1841 17.88C66.1841 17.88 66.4241 16.848 66.7121 15.336H70.9601L71.5601 17.88C71.5841 18 71.7041 18 71.7041 18H77.1281C77.1281 18 77.2481 18 77.2001 17.88ZM67.3841 12.096C67.8401 9.912 68.3441 6.888 68.7761 5.136L70.1921 12.096H67.3841ZM93.579 0.863999H88.587C88.587 0.863999 88.467 0.863999 88.467 0.983999L88.515 7.512H84.339C84.339 6.504 84.363 4.752 84.363 4.032C84.363 1.296 82.731 0.167999 80.931 0.167999C79.539 0.167999 78.003 1.152 77.739 1.944C77.523 2.544 78.939 1.896 79.203 4.752C79.203 4.776 79.155 17.88 79.155 17.88C79.131 18 79.251 18 79.251 18H84.195C84.195 18 84.315 18 84.315 17.88L84.291 10.968H88.515L88.467 17.88C88.443 18 88.563 18 88.563 18H93.531C93.531 18 93.651 18 93.651 17.88L93.675 0.983999C93.699 0.863999 93.579 0.863999 93.579 0.863999ZM111.301 17.88C111.301 17.88 107.965 6.768 106.957 3.936C106.021 1.32 104.245 0.167999 102.493 0.167999C101.101 0.167999 99.3727 0.887999 99.0607 1.824C98.8687 2.376 100.165 2.424 99.1807 4.944C99.1807 4.968 95.0527 17.88 95.0527 17.88C94.9807 18 95.1007 18 95.1007 18H100.117C100.117 18 100.237 18 100.285 17.88C100.285 17.88 100.525 16.848 100.813 15.336H105.061L105.661 17.88C105.685 18 105.805 18 105.805 18H111.229C111.229 18 111.349 18 111.301 17.88ZM101.485 12.096C101.941 9.912 102.445 6.888 102.877 5.136L104.293 12.096H101.485ZM127.68 0.863999H122.688C122.688 0.863999 122.568 0.863999 122.568 0.983999L122.616 7.512H118.44C118.44 6.504 118.464 4.752 118.464 4.032C118.464 1.296 116.832 0.167999 115.032 0.167999C113.64 0.167999 112.104 1.152 111.84 1.944C111.624 2.544 113.04 1.896 113.304 4.752C113.304 4.776 113.256 17.88 113.256 17.88C113.232 18 113.352 18 113.352 18H118.296C118.296 18 118.416 18 118.416 17.88L118.392 10.968H122.616L122.568 17.88C122.544 18 122.664 18 122.664 18H127.632C127.632 18 127.752 18 127.752 17.88L127.776 0.983999C127.8 0.863999 127.68 0.863999 127.68 0.863999ZM145.881 9.432C145.881 4.536 142.617 0.311999 137.553 0.311999C132.513 0.311999 129.249 4.536 129.249 9.432C129.249 14.352 132.513 18.504 137.553 18.504C142.713 18.504 145.881 14.352 145.881 9.432ZM134.673 9.432C134.673 6.6 135.729 3 137.553 3C139.377 3 140.457 6.6 140.457 9.432C140.457 12.288 139.425 15.816 137.553 15.816C135.753 15.816 134.673 12.168 134.673 9.432Z" fill="#FDF7B6"/>
<path d="M60.744 24.864H55.752C55.752 24.864 55.632 24.864 55.632 24.984L55.68 31.512H51.504C51.504 30.504 51.528 28.752 51.528 28.032C51.528 25.296 49.896 24.168 48.096 24.168C46.704 24.168 45.168 25.152 44.904 25.944C44.688 26.544 46.104 25.896 46.368 28.752C46.368 28.776 46.32 41.88 46.32 41.88C46.296 42 46.416 42 46.416 42H51.36C51.36 42 51.48 42 51.48 41.88L51.456 34.968H55.68L55.632 41.88C55.608 42 55.728 42 55.728 42H60.696C60.696 42 60.816 42 60.816 41.88L60.84 24.984C60.864 24.864 60.744 24.864 60.744 24.864ZM74.3378 37.896C72.6577 38.976 68.2177 39.6 68.1217 36.48C68.1217 36.456 68.1217 34.752 68.1217 34.752H72.0818C72.0818 34.752 72.2257 34.752 72.2257 34.632V32.232C72.2498 32.112 72.1057 32.112 72.1057 32.112H68.1458C68.1458 30.888 68.1697 29.424 68.1697 28.944C68.1697 28.944 71.0258 29.592 72.7777 28.896C75.5378 27.792 74.6017 24.936 74.6017 24.936C74.5538 24.816 74.4097 24.816 74.4097 24.816H62.9617C62.9617 24.816 62.8177 24.816 62.8177 24.936L62.7937 36C62.7937 39.336 64.8337 42.528 68.9377 42.528C72.8498 42.528 74.7217 39.696 74.9138 38.472C75.0098 37.896 74.8177 37.584 74.3378 37.896ZM75.5616 39.48C75.1536 39.624 75.8496 42.216 78.1296 42.48C82.6176 42.984 84.2976 38.616 84.6576 34.488C84.8496 34.44 85.1136 34.464 85.3056 34.584L85.1856 41.88C85.1616 42 85.2816 42 85.2816 42H90.3936C90.3936 42 90.5136 42 90.5136 41.88L90.3696 34.584C90.5616 34.464 90.8256 34.44 91.0176 34.488C91.3776 38.616 93.0816 42.984 97.5696 42.48C99.8496 42.216 100.546 39.624 100.138 39.48C98.2656 38.88 96.2016 35.472 95.6736 34.368C94.9056 32.736 94.0176 31.776 92.9136 31.632C92.8896 29.832 93.8736 27.984 94.8576 28.032C95.8656 28.08 95.6016 28.92 95.6016 29.4C95.6016 29.712 99.7776 30.768 100.21 27.288C100.474 25.248 98.6016 24.048 96.4896 24.264C92.9616 24.624 91.0656 28.464 90.9456 31.872C90.7776 31.944 90.5376 31.944 90.3696 32.04L90.5136 24.984C90.5376 24.864 90.4176 24.864 90.4176 24.864H85.3056C85.3056 24.864 85.1856 24.864 85.1856 24.984L85.3056 32.04C85.1376 31.944 84.9216 31.944 84.7536 31.872C84.6336 28.464 82.8096 24.624 79.2816 24.264C77.1696 24.048 75.2256 25.248 75.4896 27.288C75.9216 30.768 80.0976 29.712 80.0976 29.4C80.0976 28.92 80.0256 28.032 80.8416 28.008C81.8256 27.984 82.7856 29.832 82.7616 31.632C81.6576 31.776 80.7936 32.736 80.0256 34.368C79.4976 35.472 77.4336 38.88 75.5616 39.48ZM116.371 24.864H111.379C111.379 24.864 111.259 24.864 111.259 24.984L111.307 31.512H107.131C107.131 30.504 107.155 28.752 107.155 28.032C107.155 25.296 105.523 24.168 103.723 24.168C102.331 24.168 100.795 25.152 100.531 25.944C100.315 26.544 101.731 25.896 101.995 28.752C101.995 28.776 101.947 41.88 101.947 41.88C101.923 42 102.043 42 102.043 42H106.987C106.987 42 107.107 42 107.107 41.88L107.083 34.968H111.307L111.259 41.88C111.235 42 111.355 42 111.355 42H116.323C116.323 42 116.443 42 116.443 41.88L116.467 24.984C116.491 24.864 116.371 24.864 116.371 24.864ZM134.573 33.432C134.573 28.536 131.309 24.312 126.245 24.312C121.205 24.312 117.941 28.536 117.941 33.432C117.941 38.352 121.205 42.504 126.245 42.504C131.405 42.504 134.573 38.352 134.573 33.432ZM123.365 33.432C123.365 30.6 124.421 27 126.245 27C128.069 27 129.149 30.6 129.149 33.432C129.149 36.288 128.117 39.816 126.245 39.816C124.445 39.816 123.365 36.168 123.365 33.432ZM150.243 37.248C147.267 39.912 141.819 39.72 141.051 33.528C140.739 31.104 141.867 27.336 144.051 27.336C145.659 27.336 146.043 29.016 145.827 30.576C145.779 31.056 146.619 31.44 147.675 31.44C149.403 31.44 150.339 29.976 150.339 28.704C150.339 26.112 147.699 24.264 143.931 24.312C138.915 24.336 135.531 28.56 135.531 33.336C135.531 38.28 139.155 42.6 143.907 42.504C148.851 42.408 150.411 38.736 150.627 37.8C150.771 37.224 150.723 36.84 150.243 37.248ZM166.262 24.816C166.214 24.696 166.07 24.696 166.07 24.696C166.07 24.696 165.446 24.72 164.51 24.72C157.838 24.624 155.486 23.592 153.158 24.816C150.59 26.16 151.67 28.92 151.694 28.944C151.694 28.944 151.742 29.088 151.862 29.064C153.23 28.8 154.622 28.704 156.134 28.728L156.062 38.52C156.062 41.328 157.742 42.48 159.638 42.48C161.054 42.48 162.638 41.472 162.902 40.656C163.142 40.008 161.486 40.776 161.366 37.2L161.27 29.064C161.27 29.064 163.358 29.352 164.462 29.016C167.294 28.176 166.262 24.816 166.262 24.816ZM173 24.864H167.888C167.888 24.864 167.768 24.864 167.768 24.984L167.792 35.736C167.792 38.784 169.592 42.528 174.704 42.528C179.696 42.528 182.168 39.936 182.168 36.216C182.168 32.808 178.856 29.592 173.096 30.48V24.984C173.12 24.864 173 24.864 173 24.864ZM175.064 39.624C173.816 39.624 173.12 38.304 173.096 37.176V33.24C175.328 32.808 177.008 34.176 177.008 36.696C177.008 38.04 176.384 39.624 175.064 39.624Z" fill="white"/>
</svg>
