<svg width="150" height="50" viewBox="0 0 150 50" fill="none" xmlns="http://www.w3.org/2000/svg">
<rect width="150" height="50" rx="25" fill="white"/>
<path fill-rule="evenodd" clip-rule="evenodd" d="M105.991 32.032H110.543V27.7087H105.991V32.032ZM106.19 25.4955H110.374V11.5452H106.189V25.4955H106.19ZM48.9731 27.7559C48.3374 28.4399 47.5248 28.782 46.5346 28.782C45.5632 28.782 44.7591 28.4354 44.1245 27.7417C43.4889 27.0485 43.1713 25.9815 43.1713 24.5389C43.1713 23.1532 43.4889 22.1129 44.1245 21.4198C44.7591 20.7267 45.5632 20.3795 46.5346 20.3795C47.5248 20.3795 48.3374 20.7267 48.9731 21.4198C49.6082 22.1129 49.9263 23.1617 49.9263 24.5668C49.9263 26.0088 49.6076 27.0719 48.9731 27.7559ZM46.8481 17.3555C45.3048 17.3555 43.8298 17.8175 42.5909 18.6074C42.7213 18.2427 42.8556 17.8795 42.9938 17.5176C43.5589 16.0591 44.8791 15.329 46.4811 15.1844L52.9538 14.6023V11L48.9543 11.4484C42.0446 12.1029 39 13.772 39 23.1162C39 29.0836 42.0981 31.822 46.5494 31.822C51.0007 31.822 53.9491 29.0813 53.9491 24.589C53.9491 20.0961 50.9347 17.356 46.8481 17.356V17.3555ZM82.5805 27.7582C81.9454 28.4513 81.1413 28.7979 80.1699 28.7979C79.1797 28.7979 78.3671 28.4513 77.7314 27.7582C77.0963 27.0645 76.7782 26.0157 76.7782 24.6112C76.7782 23.1686 77.0969 22.1061 77.7314 21.4221C78.3671 20.738 79.1797 20.396 80.1699 20.396C81.1413 20.396 81.9454 20.742 82.5805 21.4357C83.2156 22.1289 83.5331 23.1965 83.5331 24.6385C83.5331 26.0248 83.2156 27.0645 82.5805 27.7582ZM80.9017 17.3555C78.9737 17.3555 77.4992 18.0776 76.48 19.259V17.6497H72.9045V37H76.7776V30.2365C77.7792 31.2278 79.153 31.822 80.9017 31.822C84.9883 31.822 87.5548 28.5839 87.5548 24.589C87.5548 20.5941 84.9883 17.3555 80.9017 17.3555ZM99.0621 17.6497L95.6972 27.0013L92.2372 17.6502H88.0243L93.7014 31.686C93.0083 32.8355 92.0169 33.1695 90.712 33.1695H89.1471V36.7109H91.1406C93.9211 36.7109 96.3954 35.1716 97.6827 31.7725L102.994 17.6502H99.0621V17.6497ZM60.2317 23.024C60.3114 21.6713 61.6202 20.1775 63.5608 20.1775C65.5014 20.1775 66.7072 21.6713 66.7875 23.024H60.2311H60.2317ZM70.59 24.5475C70.59 20.5252 68.4401 17.2547 63.5972 17.2547C58.7544 17.2547 56.1565 20.5252 56.1565 24.5475C56.1565 28.782 59.0571 32.0018 64.5573 32.0018C67.3856 32.0018 69.3113 30.9114 69.3113 30.9114V27.9522C69.3113 27.9522 67.7885 28.8599 65.1781 28.8599C62.2724 28.8599 60.4565 27.5454 60.2363 25.7971H70.5309C70.5684 25.4546 70.59 24.9037 70.59 24.5475Z" fill="#3E2D8F"/>
</svg>
