<svg width="461" height="1383" viewBox="0 0 461 1383" fill="none" xmlns="http://www.w3.org/2000/svg">
<circle cx="424.661" cy="358.661" r="20" transform="rotate(20.1279 424.661 358.661)" stroke="white" stroke-width="2" stroke-linecap="round" stroke-linejoin="round"/>
<path d="M414.347 349.023C415.333 347.787 417.304 345.314 421.107 345.11" stroke="white" stroke-width="2" stroke-linecap="round" stroke-linejoin="round"/>
<path d="M413.516 365.757C413.04 364.249 412.09 361.233 414.043 357.965" stroke="white" stroke-width="2" stroke-linecap="round" stroke-linejoin="round"/>
<path d="M417.023 364.907C415.875 363.82 413.946 362.312 414.067 358.506" stroke="white" stroke-width="2" stroke-linecap="round" stroke-linejoin="round"/>
<path d="M438.426 358.043C437.379 356.091 435.285 352.187 430.113 351.017" stroke="white" stroke-width="2" stroke-linecap="round" stroke-linejoin="round"/>
<path d="M434.164 360.815C434.192 358.581 434.559 355.139 430.631 351.567" stroke="white" stroke-width="2" stroke-linecap="round" stroke-linejoin="round"/>
<ellipse cx="30.0666" cy="766.161" rx="22.2836" ry="20.7606" transform="rotate(20.1279 30.0666 766.161)" stroke="white" stroke-width="2" stroke-linecap="round" stroke-linejoin="round"/>
<path d="M18.4315 755.816C19.4904 754.546 21.6081 752.005 25.8054 751.885" stroke="white" stroke-width="2" stroke-linecap="round" stroke-linejoin="round"/>
<path d="M17.9243 773.317C17.3619 771.726 16.2369 768.545 18.3157 765.171" stroke="white" stroke-width="2" stroke-linecap="round" stroke-linejoin="round"/>
<path d="M21.7794 772.513C20.484 771.346 18.3153 769.72 18.355 765.738" stroke="white" stroke-width="2" stroke-linecap="round" stroke-linejoin="round"/>
<path d="M45.2646 765.852C44.0592 763.783 41.6485 759.643 35.9036 758.291" stroke="white" stroke-width="2" stroke-linecap="round" stroke-linejoin="round"/>
<path d="M40.6222 768.65C40.5981 766.312 40.9187 762.716 36.4905 758.88" stroke="white" stroke-width="2" stroke-linecap="round" stroke-linejoin="round"/>
<circle cx="420.476" cy="857.476" r="27.235" transform="rotate(-47.6048 420.476 857.476)" stroke="white" stroke-width="2" stroke-linecap="round" stroke-linejoin="round"/>
<path d="M403.009 865.5C401.96 863.62 399.861 859.86 401.566 854.963" stroke="white" stroke-width="2" stroke-linecap="round" stroke-linejoin="round"/>
<path d="M423.668 875.183C421.523 875.004 417.231 874.646 414.121 870.497" stroke="white" stroke-width="2" stroke-linecap="round" stroke-linejoin="round"/>
<path d="M424.407 870.324C422.444 871.21 419.549 872.862 414.815 870.746" stroke="white" stroke-width="2" stroke-linecap="round" stroke-linejoin="round"/>
<path d="M426.801 839.81C423.8 840.123 417.8 840.748 413.656 846.662" stroke="white" stroke-width="2" stroke-linecap="round" stroke-linejoin="round"/>
<path d="M428.094 846.612C425.294 845.424 421.145 843.186 414.617 846.292" stroke="white" stroke-width="2" stroke-linecap="round" stroke-linejoin="round"/>
<circle cx="33.8534" cy="1160.85" r="20.4236" transform="rotate(-47.6048 33.8534 1160.85)" stroke="white" stroke-width="2" stroke-linecap="round" stroke-linejoin="round"/>
<path d="M20.7549 1166.87C19.9679 1165.46 18.394 1162.64 19.6726 1158.97" stroke="white" stroke-width="2" stroke-linecap="round" stroke-linejoin="round"/>
<path d="M36.2471 1174.13C34.6381 1174 31.42 1173.73 29.0872 1170.62" stroke="white" stroke-width="2" stroke-linecap="round" stroke-linejoin="round"/>
<path d="M36.8005 1170.49C35.3287 1171.15 33.1576 1172.39 29.6075 1170.8" stroke="white" stroke-width="2" stroke-linecap="round" stroke-linejoin="round"/>
<path d="M38.596 1147.61C36.346 1147.84 31.8461 1148.31 28.7392 1152.74" stroke="white" stroke-width="2" stroke-linecap="round" stroke-linejoin="round"/>
<path d="M39.5661 1152.71C37.4663 1151.82 34.3548 1150.14 29.4593 1152.47" stroke="white" stroke-width="2" stroke-linecap="round" stroke-linejoin="round"/>
<circle cx="354.852" cy="1343.85" r="26.0851" transform="rotate(-47.6048 354.852 1343.85)" stroke="white" stroke-width="2" stroke-linecap="round" stroke-linejoin="round"/>
<path d="M338.122 1351.54C337.117 1349.74 335.107 1346.13 336.74 1341.44" stroke="white" stroke-width="2" stroke-linecap="round" stroke-linejoin="round"/>
<path d="M357.909 1360.81C355.854 1360.64 351.744 1360.3 348.764 1356.32" stroke="white" stroke-width="2" stroke-linecap="round" stroke-linejoin="round"/>
<path d="M358.616 1356.16C356.736 1357.01 353.963 1358.59 349.429 1356.56" stroke="white" stroke-width="2" stroke-linecap="round" stroke-linejoin="round"/>
<path d="M360.909 1326.93C358.035 1327.23 352.288 1327.83 348.32 1333.49" stroke="white" stroke-width="2" stroke-linecap="round" stroke-linejoin="round"/>
<path d="M362.148 1333.45C359.466 1332.31 355.492 1330.16 349.24 1333.14" stroke="white" stroke-width="2" stroke-linecap="round" stroke-linejoin="round"/>
<circle cx="389.322" cy="22.6725" r="16.618" transform="rotate(20.1279 389.322 22.6725)" stroke="white" stroke-width="2" stroke-linecap="round" stroke-linejoin="round"/>
<path d="M380.752 14.6646C381.571 13.6374 383.209 11.5828 386.369 11.4133" stroke="white" stroke-width="2" stroke-linecap="round" stroke-linejoin="round"/>
<path d="M380.061 28.5688C379.666 27.3159 378.876 24.8099 380.5 22.0941" stroke="white" stroke-width="2" stroke-linecap="round" stroke-linejoin="round"/>
<path d="M382.975 27.8624C382.022 26.9589 380.419 25.7062 380.519 22.5438" stroke="white" stroke-width="2" stroke-linecap="round" stroke-linejoin="round"/>
<path d="M400.759 22.159C399.889 20.537 398.149 17.2931 393.851 16.3211" stroke="white" stroke-width="2" stroke-linecap="round" stroke-linejoin="round"/>
<path d="M397.217 24.4622C397.241 22.6064 397.545 19.7459 394.282 16.7778" stroke="white" stroke-width="2" stroke-linecap="round" stroke-linejoin="round"/>
<circle cx="58.3216" cy="292.322" r="16.618" transform="rotate(20.1279 58.3216 292.322)" stroke="white" stroke-width="2" stroke-linecap="round" stroke-linejoin="round"/>
<path d="M49.7522 284.314C50.5712 283.286 52.2091 281.232 55.3685 281.062" stroke="white" stroke-width="2" stroke-linecap="round" stroke-linejoin="round"/>
<path d="M49.0613 298.218C48.6663 296.965 47.8763 294.459 49.4997 291.743" stroke="white" stroke-width="2" stroke-linecap="round" stroke-linejoin="round"/>
<path d="M51.9754 297.512C51.0217 296.608 49.419 295.355 49.5193 292.193" stroke="white" stroke-width="2" stroke-linecap="round" stroke-linejoin="round"/>
<path d="M69.7592 291.808C68.8891 290.186 67.1489 286.942 62.8513 285.97" stroke="white" stroke-width="2" stroke-linecap="round" stroke-linejoin="round"/>
<path d="M66.2175 294.111C66.2407 292.256 66.5454 289.395 63.2821 286.427" stroke="white" stroke-width="2" stroke-linecap="round" stroke-linejoin="round"/>
</svg>
