<svg width="173" height="745" viewBox="0 0 173 745" fill="none" xmlns="http://www.w3.org/2000/svg">
<circle cx="27.6609" cy="717.661" r="20" transform="rotate(20.1279 27.6609 717.661)" stroke="white" stroke-width="2" stroke-linecap="round" stroke-linejoin="round"/>
<path d="M17.3475 708.023C18.3331 706.787 20.3044 704.314 24.1068 704.11" stroke="white" stroke-width="2" stroke-linecap="round" stroke-linejoin="round"/>
<path d="M16.516 724.757C16.0406 723.249 15.0899 720.233 17.0436 716.965" stroke="white" stroke-width="2" stroke-linecap="round" stroke-linejoin="round"/>
<path d="M20.0232 723.907C18.8753 722.82 16.9465 721.312 17.0672 717.506" stroke="white" stroke-width="2" stroke-linecap="round" stroke-linejoin="round"/>
<path d="M41.4263 717.043C40.3791 715.091 38.2847 711.187 33.1125 710.017" stroke="white" stroke-width="2" stroke-linecap="round" stroke-linejoin="round"/>
<path d="M37.164 719.815C37.1919 717.581 37.5586 714.139 33.6313 710.566" stroke="white" stroke-width="2" stroke-linecap="round" stroke-linejoin="round"/>
<circle cx="145.288" cy="512.288" r="20" transform="rotate(-66.6544 145.288 512.288)" stroke="white" stroke-width="2" stroke-linecap="round" stroke-linejoin="round"/>
<path d="M135.087 522.044C133.908 520.991 131.55 518.884 131.56 515.076" stroke="white" stroke-width="2" stroke-linecap="round" stroke-linejoin="round"/>
<path d="M151.748 523.814C150.216 524.204 147.151 524.984 143.997 522.85" stroke="white" stroke-width="2" stroke-linecap="round" stroke-linejoin="round"/>
<path d="M151.096 520.264C149.946 521.349 148.332 523.191 144.539 522.856" stroke="white" stroke-width="2" stroke-linecap="round" stroke-linejoin="round"/>
<path d="M145.444 498.51C143.436 499.446 139.42 501.318 137.962 506.416" stroke="white" stroke-width="2" stroke-linecap="round" stroke-linejoin="round"/>
<path d="M147.972 502.921C145.744 502.768 142.327 502.208 138.54 505.929" stroke="white" stroke-width="2" stroke-linecap="round" stroke-linejoin="round"/>
<circle cx="43.1985" cy="206.198" r="12.625" transform="rotate(20.1279 43.1985 206.198)" stroke="white" stroke-width="2" stroke-linecap="round" stroke-linejoin="round"/>
<path d="M36.688 200.115C37.3102 199.334 38.5546 197.773 40.9549 197.645" stroke="white" stroke-width="2" stroke-linecap="round" stroke-linejoin="round"/>
<path d="M36.1632 210.678C35.8631 209.726 35.2629 207.822 36.4962 205.759" stroke="white" stroke-width="2" stroke-linecap="round" stroke-linejoin="round"/>
<path d="M38.3772 210.141C37.6526 209.455 36.4351 208.503 36.5112 206.1" stroke="white" stroke-width="2" stroke-linecap="round" stroke-linejoin="round"/>
<path d="M51.8879 205.808C51.2269 204.576 49.9048 202.112 46.6398 201.373" stroke="white" stroke-width="2" stroke-linecap="round" stroke-linejoin="round"/>
<path d="M49.1973 207.558C49.215 206.148 49.4465 203.975 46.9673 201.72" stroke="white" stroke-width="2" stroke-linecap="round" stroke-linejoin="round"/>
<circle cx="139.18" cy="27.1797" r="19.625" transform="rotate(20.1279 139.18 27.1797)" stroke="white" stroke-width="2" stroke-linecap="round" stroke-linejoin="round"/>
<path d="M129.06 17.7227C130.027 16.5095 131.961 14.0832 135.692 13.8831" stroke="white" stroke-width="2" stroke-linecap="round" stroke-linejoin="round"/>
<path d="M128.244 34.1429C127.777 32.6632 126.844 29.7038 128.761 26.4966" stroke="white" stroke-width="2" stroke-linecap="round" stroke-linejoin="round"/>
<path d="M131.685 33.3086C130.559 32.2416 128.666 30.7622 128.785 27.0276" stroke="white" stroke-width="2" stroke-linecap="round" stroke-linejoin="round"/>
<path d="M152.687 26.5731C151.659 24.6576 149.604 20.8267 144.529 19.6788" stroke="white" stroke-width="2" stroke-linecap="round" stroke-linejoin="round"/>
<path d="M148.505 29.2932C148.532 27.1016 148.892 23.7236 145.038 20.2184" stroke="white" stroke-width="2" stroke-linecap="round" stroke-linejoin="round"/>
</svg>
