<svg width="217" height="749" viewBox="0 0 217 749" fill="none" xmlns="http://www.w3.org/2000/svg">
<circle cx="179.296" cy="711.296" r="26" transform="rotate(54.2011 179.296 711.296)" stroke="white" stroke-width="2" stroke-linecap="round" stroke-linejoin="round"/>
<path d="M175.21 693.407C177.172 692.794 181.096 691.567 185.339 694.116" stroke="white" stroke-width="2" stroke-linecap="round" stroke-linejoin="round"/>
<path d="M162.127 710.821C162.713 708.851 163.886 704.911 168.371 702.814" stroke="white" stroke-width="2" stroke-linecap="round" stroke-linejoin="round"/>
<path d="M166.523 712.46C166.079 710.453 165.1 707.424 168.002 703.414" stroke="white" stroke-width="2" stroke-linecap="round" stroke-linejoin="round"/>
<path d="M194.57 720.657C194.864 717.792 195.452 712.062 190.734 707.036" stroke="white" stroke-width="2" stroke-linecap="round" stroke-linejoin="round"/>
<path d="M187.961 720.537C189.618 718.152 192.52 714.712 190.892 708.005" stroke="white" stroke-width="2" stroke-linecap="round" stroke-linejoin="round"/>
<circle cx="80.25" cy="315.25" r="14.224" transform="rotate(20.1279 80.25 315.25)" stroke="white" stroke-width="2" stroke-linecap="round" stroke-linejoin="round"/>
<path d="M72.9151 308.396C73.6161 307.516 75.018 305.758 77.7223 305.613" stroke="white" stroke-width="2" stroke-linecap="round" stroke-linejoin="round"/>
<path d="M72.3238 320.297C71.9857 319.224 71.3095 317.079 72.699 314.755" stroke="white" stroke-width="2" stroke-linecap="round" stroke-linejoin="round"/>
<path d="M74.818 319.692C74.0016 318.919 72.6299 317.847 72.7157 315.14" stroke="white" stroke-width="2" stroke-linecap="round" stroke-linejoin="round"/>
<path d="M90.0399 314.81C89.2951 313.422 87.8056 310.645 84.1271 309.813" stroke="white" stroke-width="2" stroke-linecap="round" stroke-linejoin="round"/>
<path d="M87.0085 316.782C87.0284 315.193 87.2892 312.745 84.496 310.204" stroke="white" stroke-width="2" stroke-linecap="round" stroke-linejoin="round"/>
<circle cx="155.25" cy="20.25" r="14.224" transform="rotate(20.1279 155.25 20.25)" stroke="white" stroke-width="2" stroke-linecap="round" stroke-linejoin="round"/>
<path d="M147.915 13.3957C148.616 12.5164 150.018 10.7578 152.722 10.6128" stroke="white" stroke-width="2" stroke-linecap="round" stroke-linejoin="round"/>
<path d="M147.324 25.2968C146.986 24.2243 146.309 22.0794 147.699 19.7549" stroke="white" stroke-width="2" stroke-linecap="round" stroke-linejoin="round"/>
<path d="M149.818 24.6921C149.002 23.9188 147.63 22.8465 147.716 20.1397" stroke="white" stroke-width="2" stroke-linecap="round" stroke-linejoin="round"/>
<path d="M165.04 19.8103C164.295 18.422 162.806 15.6455 159.127 14.8135" stroke="white" stroke-width="2" stroke-linecap="round" stroke-linejoin="round"/>
<path d="M162.008 21.7818C162.028 20.1933 162.289 17.7449 159.496 15.2044" stroke="white" stroke-width="2" stroke-linecap="round" stroke-linejoin="round"/>
<circle cx="36.0522" cy="146.052" r="26.5402" transform="rotate(20.1279 36.0522 146.052)" stroke="white" stroke-width="2" stroke-linecap="round" stroke-linejoin="round"/>
<path d="M22.3662 133.263C23.6741 131.622 26.2901 128.341 31.3359 128.07" stroke="white" stroke-width="2" stroke-linecap="round" stroke-linejoin="round"/>
<path d="M21.2629 155.469C20.632 153.468 19.3703 149.466 21.963 145.128" stroke="white" stroke-width="2" stroke-linecap="round" stroke-linejoin="round"/>
<path d="M25.9169 154.341C24.3936 152.898 21.8341 150.897 21.9942 145.847" stroke="white" stroke-width="2" stroke-linecap="round" stroke-linejoin="round"/>
<path d="M54.3191 145.232C52.9294 142.641 50.1501 137.461 43.2865 135.908" stroke="white" stroke-width="2" stroke-linecap="round" stroke-linejoin="round"/>
<path d="M48.6628 148.91C48.6999 145.947 49.1865 141.378 43.9749 136.638" stroke="white" stroke-width="2" stroke-linecap="round" stroke-linejoin="round"/>
</svg>
