<svg width="180" height="48" viewBox="0 0 180 48" fill="none" xmlns="http://www.w3.org/2000/svg">
<path d="M34.2422 14.6769C34.2422 14.6769 30.9691 14.6769 26.6248 14.6769C27.9935 10.4516 29.0647 7.29755 29.0647 7.29755C29.1242 7 28.8862 7 28.8862 7H25.018C25.018 7 24.78 7.05951 24.7205 7.29755C24.7205 7.29755 23.6493 10.3921 22.221 14.6174C20.4357 14.6174 18.5313 14.6174 16.6865 14.6174C18.1148 10.3921 19.1264 7.29755 19.1264 7.29755C19.2455 7 19.0074 7 19.0074 7H15.1392C15.1392 7 14.8417 7.05951 14.7822 7.29755C14.7822 7.29755 13.7705 10.3921 12.3422 14.6174C8.41452 14.5579 5.37947 14.5579 4.78437 14.5579C4.54632 14.5579 4.48681 14.7959 4.48681 14.7959L3.17758 18.7236C3.17758 18.7236 3.05856 18.9616 3.35611 18.9616C4.24877 18.9616 7.16479 18.9616 10.8545 18.9616C10.2593 20.866 9.54522 22.8894 8.8906 24.7937C5.14143 24.7937 2.22541 24.7937 1.6303 24.7937C1.39226 24.7937 1.33275 24.9722 1.33275 24.9722L0.0235104 28.8999C0.0235104 28.8999 -0.095511 29.138 0.202042 29.138C1.03519 29.138 3.89171 29.138 7.46235 29.138C6.15311 33.0657 5.14143 36.1602 4.90339 36.8149C4.84388 37.0529 5.02241 36.9934 5.02241 36.9934H9.00963C9.00963 36.9934 9.18816 37.0529 9.30718 36.7553C9.54522 35.8627 10.5569 32.8871 11.8066 29.138C13.6515 29.1975 15.5558 29.1975 17.3411 29.1975C16.0319 33.1252 15.0202 36.1602 14.8417 36.8149C14.7227 37.0529 14.9607 36.9934 14.9607 36.9934H18.8884C18.8884 36.9934 19.1264 37.0529 19.186 36.7553C19.4835 35.8627 20.4952 32.9467 21.7449 29.1975C26.2082 29.1975 29.6003 29.1975 29.6003 29.1975C29.8979 29.1975 30.0169 28.9594 30.0169 28.9594L31.2666 25.0913C31.2666 25.0913 31.3261 24.8532 31.0881 24.8532C31.0881 24.8532 27.696 24.8532 23.1732 24.8532C23.8278 22.8894 24.4824 20.9255 25.137 19.0212C29.4813 19.0212 32.7544 19.0212 32.7544 19.0212C33.0519 19.0212 33.171 18.7831 33.171 18.7831L34.4207 14.9149C34.4207 14.9149 34.4802 14.6769 34.2422 14.6769ZM18.8289 24.8532C16.9841 24.7937 15.0797 24.7937 13.2944 24.7937C13.949 22.8894 14.6036 20.866 15.1987 18.9616C17.0436 18.9616 18.9479 18.9616 20.7927 19.0212C20.1381 20.9255 19.4835 22.8894 18.8289 24.8532Z" fill="white"/>
<path d="M58.368 15.48C56.496 14.88 54.984 11.472 54.456 10.368C53.688 8.736 53.064 7.512 51.456 7.536C51.432 5.736 51.912 4.176 52.896 4.176C53.712 4.176 53.592 4.92 53.592 5.4C53.592 5.712 57.768 6.768 58.2 3.288C58.464 1.248 56.712 -1.43051e-06 54.6 0.263999C51.048 0.696 49.32 4.104 49.368 7.776C49.2 7.848 48.792 7.848 48.624 7.944L48.744 4.104C48.744 1.368 47.064 0.263999 45.192 0.263999C43.776 0.263999 42.192 1.224 41.904 2.016C41.688 2.64 43.152 1.992 43.416 4.848C43.416 4.872 43.392 6.408 43.416 17.88C43.392 18 43.512 18 43.512 18H48.672C48.672 18 48.792 18 48.792 17.88L48.624 10.584C48.816 10.464 49.32 10.44 49.512 10.488C50.016 14.208 51.144 19.008 55.8 18.48C58.08 18.216 58.776 15.624 58.368 15.48ZM75.2314 17.88C75.2314 17.88 71.8954 6.768 70.8874 3.936C69.9514 1.32 68.1754 0.167999 66.4234 0.167999C65.0314 0.167999 63.3034 0.887999 62.9914 1.824C62.7994 2.376 64.0954 2.424 63.1114 4.944C63.1114 4.968 58.9834 17.88 58.9834 17.88C58.9114 18 59.0314 18 59.0314 18H64.0474C64.0474 18 64.1674 18 64.2154 17.88C64.2154 17.88 64.4554 16.848 64.7434 15.336H68.9914L69.5914 17.88C69.6154 18 69.7354 18 69.7354 18H75.1594C75.1594 18 75.2794 18 75.2314 17.88ZM65.4154 12.096C65.8714 9.912 66.3754 6.888 66.8074 5.136L68.2234 12.096H65.4154ZM91.1782 0.863999C87.5782 -0.192 80.2822 -0.120001 76.7062 0.863999C76.7062 0.863999 76.5862 0.863999 76.6102 0.983999L76.6342 17.88C76.6342 18 76.7542 18 76.7542 18H81.7222C81.7222 18 81.8422 18 81.8182 17.88V3.768H86.0662V17.88C86.0422 18 86.1622 18 86.1622 18H91.1302C91.1302 18 91.2502 18 91.2502 17.88L91.2742 0.983999C91.2982 0.863999 91.1782 0.863999 91.1782 0.863999ZM107.471 1.008C107.471 0.887999 107.351 0.887999 107.351 0.887999H102.071C102.071 0.887999 101.951 0.887999 101.951 1.008C101.951 1.008 102.263 6.024 102.095 7.224C101.711 9.216 99.7427 9.24 99.6707 7.104L99.5747 4.392C99.4787 1.92 97.6787 0.383999 95.5427 0.383999C94.0547 0.383999 92.6627 1.44 92.3987 2.232C92.1827 2.952 94.1507 2.088 94.2947 6.288L94.3667 7.488C94.6067 12.072 99.8387 13.488 102.191 10.344C102.239 11.88 102.623 16.272 100.343 16.272C99.4067 16.272 98.6387 15.216 99.3107 13.512C99.3827 13.032 98.2787 12.36 97.2467 12.36C95.5427 12.36 94.3667 13.368 94.4627 15.072C94.6067 17.832 97.2947 18.912 100.607 18.648C104.567 18.336 107.015 15.336 107.303 10.584C107.471 7.968 107.471 4.392 107.471 1.008ZM110.241 6.288V8.736C110.241 13.848 116.793 14.568 118.737 10.44V14.52C118.737 17.328 120.417 18.48 122.313 18.48C123.729 18.48 125.433 17.472 125.697 16.656C125.937 16.008 124.281 16.776 124.161 13.2C124.089 1.776 124.113 1.008 124.113 1.008C124.113 0.912 123.993 0.863999 123.993 0.863999H118.857C118.857 0.863999 118.761 0.912 118.761 1.032L118.737 6.912C118.713 9.6 115.569 10.392 115.569 7.872V4.392C115.569 1.92 113.817 0.383999 111.681 0.383999C110.193 0.383999 108.753 1.44 108.465 2.232C108.225 2.952 110.241 2.088 110.241 6.288ZM142.16 0.959999C142.184 0.839999 142.04 0.839999 142.04 0.839999H137.624C137.624 0.839999 137.528 0.816 137.456 0.959999L132.608 10.992L132.824 8.976V4.104C132.824 1.368 131.144 0.263999 129.272 0.263999C127.856 0.263999 126.272 1.224 125.984 2.016C125.768 2.64 127.232 1.992 127.496 4.848C127.496 4.872 127.472 6.408 127.496 17.88C127.472 18 127.592 18 127.592 18H132.488C132.488 18 132.632 18 132.68 17.88C133.88 15.768 136.064 11.208 137.384 8.76L137.144 11.064L137.024 17.88C136.976 18 137.12 18 137.12 18H142.112C142.112 18 142.232 18 142.232 17.88L142.16 0.959999ZM159.179 0.863999H154.187C154.187 0.863999 154.067 0.863999 154.067 0.983999L154.115 7.512H149.939C149.939 6.504 149.963 4.752 149.963 4.032C149.963 1.296 148.331 0.167999 146.531 0.167999C145.139 0.167999 143.603 1.152 143.339 1.944C143.123 2.544 144.539 1.896 144.803 4.752C144.803 4.776 144.755 17.88 144.755 17.88C144.731 18 144.851 18 144.851 18H149.795C149.795 18 149.915 18 149.915 17.88L149.891 10.968H154.115L154.067 17.88C154.043 18 154.163 18 154.163 18H159.131C159.131 18 159.251 18 159.251 17.88L159.275 0.983999C159.299 0.863999 159.179 0.863999 159.179 0.863999ZM177.38 9.432C177.38 4.536 174.116 0.311999 169.052 0.311999C164.012 0.311999 160.748 4.536 160.748 9.432C160.748 14.352 164.012 18.504 169.052 18.504C174.212 18.504 177.38 14.352 177.38 9.432ZM166.172 9.432C166.172 6.6 167.228 3 169.052 3C170.876 3 171.956 6.6 171.956 9.432C171.956 12.288 170.924 15.816 169.052 15.816C167.252 15.816 166.172 12.168 166.172 9.432Z" fill="#EEB781"/>
<path d="M57.744 24.864H52.752C52.752 24.864 52.632 24.864 52.632 24.984L52.68 31.512H48.504C48.504 30.504 48.528 28.752 48.528 28.032C48.528 25.296 46.896 24.168 45.096 24.168C43.704 24.168 42.168 25.152 41.904 25.944C41.688 26.544 43.104 25.896 43.368 28.752C43.368 28.776 43.32 41.88 43.32 41.88C43.296 42 43.416 42 43.416 42H48.36C48.36 42 48.48 42 48.48 41.88L48.456 34.968H52.68L52.632 41.88C52.608 42 52.728 42 52.728 42H57.696C57.696 42 57.816 42 57.816 41.88L57.84 24.984C57.864 24.864 57.744 24.864 57.744 24.864ZM71.3378 37.896C69.6577 38.976 65.2177 39.6 65.1217 36.48C65.1217 36.456 65.1217 34.752 65.1217 34.752H69.0818C69.0818 34.752 69.2257 34.752 69.2257 34.632V32.232C69.2498 32.112 69.1057 32.112 69.1057 32.112H65.1458C65.1458 30.888 65.1697 29.424 65.1697 28.944C65.1697 28.944 68.0258 29.592 69.7777 28.896C72.5378 27.792 71.6017 24.936 71.6017 24.936C71.5538 24.816 71.4097 24.816 71.4097 24.816H59.9617C59.9617 24.816 59.8177 24.816 59.8177 24.936L59.7937 36C59.7937 39.336 61.8337 42.528 65.9377 42.528C69.8498 42.528 71.7217 39.696 71.9138 38.472C72.0098 37.896 71.8177 37.584 71.3378 37.896ZM72.5616 39.48C72.1536 39.624 72.8496 42.216 75.1296 42.48C79.6176 42.984 81.2976 38.616 81.6576 34.488C81.8496 34.44 82.1136 34.464 82.3056 34.584L82.1856 41.88C82.1616 42 82.2816 42 82.2816 42H87.3936C87.3936 42 87.5136 42 87.5136 41.88L87.3696 34.584C87.5616 34.464 87.8256 34.44 88.0176 34.488C88.3776 38.616 90.0816 42.984 94.5696 42.48C96.8496 42.216 97.5456 39.624 97.1376 39.48C95.2656 38.88 93.2016 35.472 92.6736 34.368C91.9056 32.736 91.0176 31.776 89.9136 31.632C89.8896 29.832 90.8736 27.984 91.8576 28.032C92.8656 28.08 92.6016 28.92 92.6016 29.4C92.6016 29.712 96.7776 30.768 97.2096 27.288C97.4736 25.248 95.6016 24.048 93.4896 24.264C89.9616 24.624 88.0656 28.464 87.9456 31.872C87.7776 31.944 87.5376 31.944 87.3696 32.04L87.5136 24.984C87.5376 24.864 87.4176 24.864 87.4176 24.864H82.3056C82.3056 24.864 82.1856 24.864 82.1856 24.984L82.3056 32.04C82.1376 31.944 81.9216 31.944 81.7536 31.872C81.6336 28.464 79.8096 24.624 76.2816 24.264C74.1696 24.048 72.2256 25.248 72.4896 27.288C72.9216 30.768 77.0976 29.712 77.0976 29.4C77.0976 28.92 77.0256 28.032 77.8416 28.008C78.8256 27.984 79.7856 29.832 79.7616 31.632C78.6576 31.776 77.7936 32.736 77.0256 34.368C76.4976 35.472 74.4336 38.88 72.5616 39.48ZM113.371 24.864H108.379C108.379 24.864 108.259 24.864 108.259 24.984L108.307 31.512H104.131C104.131 30.504 104.155 28.752 104.155 28.032C104.155 25.296 102.523 24.168 100.723 24.168C99.3315 24.168 97.7955 25.152 97.5315 25.944C97.3155 26.544 98.7315 25.896 98.9955 28.752C98.9955 28.776 98.9475 41.88 98.9475 41.88C98.9235 42 99.0435 42 99.0435 42H103.987C103.987 42 104.107 42 104.107 41.88L104.083 34.968H108.307L108.259 41.88C108.235 42 108.355 42 108.355 42H113.323C113.323 42 113.443 42 113.443 41.88L113.467 24.984C113.491 24.864 113.371 24.864 113.371 24.864ZM131.573 33.432C131.573 28.536 128.309 24.312 123.245 24.312C118.205 24.312 114.941 28.536 114.941 33.432C114.941 38.352 118.205 42.504 123.245 42.504C128.405 42.504 131.573 38.352 131.573 33.432ZM120.365 33.432C120.365 30.6 121.421 27 123.245 27C125.069 27 126.149 30.6 126.149 33.432C126.149 36.288 125.117 39.816 123.245 39.816C121.445 39.816 120.365 36.168 120.365 33.432ZM147.243 37.248C144.267 39.912 138.819 39.72 138.051 33.528C137.739 31.104 138.867 27.336 141.051 27.336C142.659 27.336 143.043 29.016 142.827 30.576C142.779 31.056 143.619 31.44 144.675 31.44C146.403 31.44 147.339 29.976 147.339 28.704C147.339 26.112 144.699 24.264 140.931 24.312C135.915 24.336 132.531 28.56 132.531 33.336C132.531 38.28 136.155 42.6 140.907 42.504C145.851 42.408 147.411 38.736 147.627 37.8C147.771 37.224 147.723 36.84 147.243 37.248ZM163.262 24.816C163.214 24.696 163.07 24.696 163.07 24.696C163.07 24.696 162.446 24.72 161.51 24.72C154.838 24.624 152.486 23.592 150.158 24.816C147.59 26.16 148.67 28.92 148.694 28.944C148.694 28.944 148.742 29.088 148.862 29.064C150.23 28.8 151.622 28.704 153.134 28.728L153.062 38.52C153.062 41.328 154.742 42.48 156.638 42.48C158.054 42.48 159.638 41.472 159.902 40.656C160.142 40.008 158.486 40.776 158.366 37.2L158.27 29.064C158.27 29.064 160.358 29.352 161.462 29.016C164.294 28.176 163.262 24.816 163.262 24.816ZM170 24.864H164.888C164.888 24.864 164.768 24.864 164.768 24.984L164.792 35.736C164.792 38.784 166.592 42.528 171.704 42.528C176.696 42.528 179.168 39.936 179.168 36.216C179.168 32.808 175.856 29.592 170.096 30.48V24.984C170.12 24.864 170 24.864 170 24.864ZM172.064 39.624C170.816 39.624 170.12 38.304 170.096 37.176V33.24C172.328 32.808 174.008 34.176 174.008 36.696C174.008 38.04 173.384 39.624 172.064 39.624Z" fill="white"/>
</svg>
