<svg width="150" height="50" viewBox="0 0 150 50" fill="none" xmlns="http://www.w3.org/2000/svg">
<rect width="150" height="50" rx="25" fill="white"/>
<path fill-rule="evenodd" clip-rule="evenodd" d="M46.8381 17.044C45.1944 16.8709 43.5374 17.2111 42.0949 18.0179C40.6525 18.8246 39.4952 20.0584 38.7824 21.5495C38.0695 23.0406 37.836 24.716 38.1139 26.3452C38.3918 27.9744 39.1675 29.4776 40.3344 30.6481C41.5013 31.8186 43.0021 32.5989 44.6304 32.8819C46.2588 33.1648 47.9348 32.9365 49.4282 32.2283C50.9215 31.52 52.1588 30.3666 52.97 28.9266C53.7813 27.4867 54.1266 25.8308 53.9585 24.1866C53.7736 22.3589 52.9646 20.6508 51.6676 19.3499C50.3707 18.0489 48.6651 17.2346 46.8381 17.044ZM46.5788 29.2336C45.6948 29.3522 44.7958 29.1908 44.0083 28.7721C43.2207 28.3534 42.5842 27.6985 42.1881 26.8993C41.792 26.1001 41.6562 25.197 41.8 24.3167C41.9437 23.4364 42.3596 22.6233 42.9893 21.9916C43.619 21.3599 44.4309 20.9414 45.3107 20.795C46.1905 20.6485 47.0941 20.7814 47.8945 21.175C48.6949 21.5686 49.3518 22.2031 49.773 22.9893C50.1942 23.7756 50.3584 24.674 50.2425 25.5584C50.121 26.4886 49.6962 27.3528 49.0339 28.0172C48.3715 28.6816 47.5087 29.1091 46.5788 29.2336ZM58.2374 17.3605C57.9599 17.3612 57.6861 17.4237 57.4358 17.5435C57.1856 17.6633 56.9652 17.8374 56.7907 18.0531C56.6161 18.2689 56.4919 18.5208 56.427 18.7905C56.3621 19.0603 56.3582 19.3412 56.4155 19.6126C56.5911 20.4922 57.4126 21.0931 58.3075 21.0931H63.5009L55.4188 31.7888C55.359 31.8677 55.3224 31.9618 55.3131 32.0604C55.3037 32.159 55.3221 32.2582 55.366 32.347C55.4099 32.4357 55.4777 32.5105 55.5617 32.5629C55.6457 32.6153 55.7427 32.6433 55.8418 32.6437H68.5194C69.4138 32.6437 70.2359 32.0429 70.4114 31.1632C70.4687 30.8918 70.4648 30.611 70.4 30.3412C70.3352 30.0715 70.211 29.8196 70.0366 29.6038C69.8622 29.3881 69.6418 29.214 69.3917 29.0941C69.1415 28.9742 68.8677 28.9116 68.5903 28.9108H62.2625L70.3385 18.2234C70.3988 18.1437 70.4358 18.0487 70.4452 17.9492C70.4545 17.8496 70.436 17.7494 70.3916 17.6598C70.3472 17.5702 70.2788 17.4947 70.1939 17.4419C70.109 17.389 70.0111 17.3608 69.9111 17.3605H58.2374ZM108.897 17.4036C108.477 17.5034 108.104 17.7434 107.839 18.084C107.574 18.4247 107.434 18.8454 107.44 19.2768V25.4915L97.3704 17.4779C97.2914 17.4152 97.1963 17.3761 97.0961 17.365C96.9959 17.354 96.8946 17.3714 96.8039 17.4154C96.7131 17.4594 96.6367 17.5281 96.5832 17.6136C96.5298 17.6991 96.5016 17.7979 96.5019 17.8988V30.7307C96.495 31.1621 96.6356 31.5829 96.9004 31.9235C97.1652 32.2641 97.5383 32.5042 97.958 32.6039C98.2306 32.6639 98.5131 32.6619 98.7848 32.5981C99.0565 32.5344 99.3104 32.4104 99.5278 32.2354C99.7452 32.0604 99.9205 31.8388 100.041 31.587C100.161 31.3352 100.223 31.0596 100.223 30.7805V24.5121L110.293 32.5258C110.372 32.5885 110.467 32.6276 110.567 32.6386C110.668 32.6497 110.769 32.6322 110.86 32.5883C110.95 32.5443 111.027 32.4757 111.08 32.3902C111.133 32.3047 111.162 32.2059 111.161 32.1051V19.2264C111.162 18.9474 111.099 18.6718 110.979 18.4201C110.859 18.1684 110.683 17.9469 110.466 17.772C110.249 17.5971 109.995 17.4732 109.723 17.4094C109.452 17.3456 109.169 17.3436 108.897 17.4036ZM82.6768 20.7358C86.9362 20.7358 90.1188 22.9868 90.1188 25.0002C90.1188 27.0137 86.9362 29.2646 82.6768 29.2646C78.4175 29.2646 75.2349 27.0137 75.2349 25.0002C75.2349 22.9868 78.4175 20.7358 82.6768 20.7358ZM82.6768 17.0034C76.5116 17.0034 71.5138 20.5837 71.5138 25.0002C71.5138 29.4167 76.5116 32.997 82.6768 32.997C88.8421 32.997 93.8398 29.4167 93.8398 25.0002C93.8398 20.5837 88.8419 17.0034 82.6768 17.0034Z" fill="#0069FF"/>
</svg>
