<svg width="260" height="60" viewBox="0 0 260 60" fill="none" xmlns="http://www.w3.org/2000/svg">
<rect width="260" height="60" rx="30" fill="white"/>
<path fill-rule="evenodd" clip-rule="evenodd" d="M185.897 28.4105H183.179C182.976 28.4105 182.798 28.5854 182.798 28.7854V31.3847C182.798 31.5847 182.976 31.7597 183.179 31.7597H185.897C186.1 31.7597 186.278 31.5847 186.278 31.3847V28.7854C186.278 28.5854 186.1 28.4105 185.897 28.4105Z" fill="#043E44"/>
<path fill-rule="evenodd" clip-rule="evenodd" d="M52.636 19.1865C52.4074 19.1615 52.2042 19.1365 52.001 19.1365C50.7054 19.2115 49.5623 19.6114 48.6986 20.1363V19.7364C48.6986 19.5864 48.7748 19.3115 48.3938 19.3115H46.3108C45.7265 19.3615 45.2439 19.7864 45.2439 20.3112V22.5107V33.2083C45.2439 35.0829 46.5902 36.2326 48.2414 36.2326H48.3938C48.5716 36.2326 48.7494 36.1577 48.7494 35.8577V31.2088C49.4607 31.6337 50.3752 31.9836 51.5691 31.9836C52.001 31.9836 52.4074 31.9586 52.7884 31.8836C54.973 31.5587 56.9544 29.6341 56.9544 25.4351C56.9544 21.9359 55.4303 19.3864 52.636 19.1865ZM50.8578 29.5092C49.5369 29.5092 48.724 28.4844 48.724 26.7598V24.1103C48.724 22.6357 49.5623 21.561 50.8578 21.561C52.255 21.561 53.1187 22.6857 53.1187 25.4851C53.1187 27.5596 52.6614 29.5092 50.8578 29.5092Z" fill="#043E44"/>
<path fill-rule="evenodd" clip-rule="evenodd" d="M165.197 20.9615C163.749 19.5618 162.097 19.2869 160.878 19.2869C159.659 19.2869 157.983 19.5618 156.56 20.9615C155.976 21.5364 154.706 23.061 154.706 25.6355C154.706 27.61 155.493 29.3596 156.662 30.4593C157.525 31.2592 158.922 32.034 160.904 32.034C162.885 32.034 164.282 31.2592 165.146 30.4593C166.314 29.3596 167.102 27.585 167.102 25.6355C167.051 23.061 165.781 21.5613 165.197 20.9615ZM162.682 28.6097C162.224 29.4096 161.539 29.6345 160.878 29.6345C160.218 29.6345 159.532 29.3846 159.075 28.6097C158.77 28.1098 158.516 27.3101 158.516 25.6604C158.516 24.7606 158.566 23.5609 159.151 22.6861C159.558 22.0362 160.116 21.7363 160.878 21.7363C161.666 21.7363 162.199 22.0362 162.606 22.6861C163.19 23.5859 163.241 24.7606 163.241 25.6604C163.241 27.3101 162.962 28.0849 162.682 28.6097Z" fill="#043E44"/>
<path fill-rule="evenodd" clip-rule="evenodd" d="M69.4771 21.3615C68.6388 20.3617 67.1654 19.312 64.7776 19.312C63.6852 19.312 62.1103 19.4869 60.6623 20.6866C59.6717 21.5115 58.4524 23.0111 58.4524 25.7105C58.4524 28.01 59.3922 29.5096 60.2305 30.3595C61.1704 31.2842 62.6692 32.059 64.7268 32.059C66.3779 32.059 67.7243 31.6342 68.715 30.9593C69.4009 30.4845 70.2137 29.6846 70.671 28.3849C70.6964 28.2849 70.7472 28.06 70.4677 28.06H67.5464C67.3687 28.06 67.1908 28.2599 67.14 28.3599C67.0384 28.6098 66.886 28.8098 66.7336 28.9598C66.4034 29.2847 65.7937 29.6596 64.9046 29.6596C63.7361 29.6596 63.0502 29.0597 62.6692 28.3599C62.3643 27.835 62.2374 27.0851 62.2628 26.4104H70.4423C70.7726 26.3603 70.8742 26.1854 70.8996 25.7355C70.8996 25.7355 70.8996 25.6855 70.8996 25.6355C70.8996 23.661 70.2391 22.2363 69.4771 21.3615ZM67.1908 24.3608H62.3136C62.3136 23.611 62.5676 22.9111 62.9994 22.4862C63.4567 22.0363 64.0917 21.7114 64.8538 21.7114C65.8191 21.7114 66.3779 22.1613 66.7082 22.6362C67.0384 23.1111 67.2162 23.7859 67.1908 24.3608Z" fill="#043E44"/>
<path fill-rule="evenodd" clip-rule="evenodd" d="M128.77 21.3615C127.932 20.3617 126.458 19.312 124.07 19.312C122.978 19.312 121.403 19.4869 119.955 20.6866C118.965 21.5115 117.745 23.0111 117.745 25.7105C117.745 28.01 118.685 29.5096 119.523 30.3595C120.463 31.2842 121.962 32.059 124.02 32.059C125.671 32.059 127.017 31.6342 128.008 30.9593C128.694 30.4845 129.506 29.6846 129.964 28.3849C129.989 28.2849 130.04 28.06 129.761 28.06H126.839C126.661 28.06 126.484 28.2599 126.433 28.3599C126.331 28.6098 126.179 28.8098 126.026 28.9598C125.696 29.2847 125.087 29.6596 124.197 29.6596C123.029 29.6596 122.343 29.0597 121.962 28.3599C121.657 27.835 121.53 27.0851 121.556 26.4104H129.735C130.065 26.3603 130.167 26.1854 130.192 25.7355C130.192 25.7355 130.192 25.6855 130.192 25.6355C130.167 23.661 129.506 22.2363 128.77 21.3615ZM126.458 24.3608H121.581C121.581 23.611 121.835 22.9111 122.267 22.4862C122.724 22.0363 123.359 21.7114 124.121 21.7114C125.087 21.7114 125.645 22.1613 125.976 22.6362C126.306 23.1111 126.484 23.7859 126.458 24.3608Z" fill="#043E44"/>
<path fill-rule="evenodd" clip-rule="evenodd" d="M105.702 27.6854C104.915 26.0857 104.229 25.136 103.569 25.036C103.569 25.036 104.458 24.986 105.067 23.3864C105.271 22.8115 105.855 21.5118 106.236 20.712C106.388 20.4121 106.617 20.0871 106.871 19.7872C106.896 19.7372 106.922 19.6872 106.922 19.6372C106.922 19.4873 106.82 19.3873 106.668 19.3623H104.127C103.416 19.3873 103.086 19.9122 102.857 20.4371C102.476 21.3119 102.324 21.8367 101.79 23.0115C101.536 23.5863 101.054 24.1862 100.012 24.1862H99.2755V15.4382C99.2755 15.2882 99.3518 14.9883 98.9707 14.9883H96.6591C96.0495 15.0383 95.5922 15.4632 95.5668 15.9881V29.76C95.5668 30.0349 95.5922 30.3848 95.7192 30.7347C95.9732 31.2846 96.4813 31.7345 97.1163 31.7345H98.7167C99.1232 31.7345 99.2501 31.5346 99.2501 31.2097V26.2607H99.8852C101.282 26.2607 101.892 27.8354 102.502 28.9351C103.061 29.9599 104 31.7845 105.702 31.6845H107.709C107.836 31.6845 107.963 31.5595 107.963 31.4346C107.963 31.3846 107.938 31.3346 107.938 31.3096C107.43 30.5848 106.363 28.8851 105.702 27.6854Z" fill="#043E44"/>
<path fill-rule="evenodd" clip-rule="evenodd" d="M178.734 27.6854C177.947 26.0857 177.26 25.136 176.6 25.036C176.6 25.036 177.489 24.986 178.099 23.3864C178.302 22.8115 178.887 21.5118 179.268 20.712C179.42 20.4121 179.649 20.0871 179.902 19.7872C179.928 19.7372 179.953 19.6872 179.953 19.6372C179.953 19.4873 179.852 19.3873 179.699 19.3623H177.159C176.448 19.3873 176.118 19.9122 175.889 20.4371C175.508 21.3119 175.356 21.8367 174.822 23.0115C174.568 23.5863 174.085 24.1862 173.044 24.1862H172.307V15.4382C172.307 15.2882 172.383 14.9883 172.002 14.9883H169.742C169.132 15.0383 168.675 15.4632 168.649 15.9881V29.76C168.649 30.0349 168.675 30.3848 168.802 30.7347C169.056 31.2846 169.538 31.7345 170.198 31.7345H171.799C172.206 31.7345 172.333 31.5346 172.333 31.2097V26.2607H172.968C174.365 26.2607 174.975 27.8354 175.584 28.9351C176.143 29.9599 177.083 31.7845 178.785 31.6845H180.791C180.918 31.6845 181.045 31.5595 181.045 31.4346C181.045 31.3846 181.02 31.3346 181.02 31.3096C180.462 30.5848 179.395 28.8851 178.734 27.6854Z" fill="#043E44"/>
<path fill-rule="evenodd" clip-rule="evenodd" d="M138.597 24.1358L136.539 23.8609C135.879 23.7609 134.965 23.561 134.965 22.7362C134.965 22.4362 135.117 22.0113 135.625 21.7614C135.854 21.6364 136.235 21.5115 136.972 21.5115C137.531 21.5115 138.141 21.5614 138.674 21.9863C138.953 22.1863 139.207 22.5112 139.385 22.8611C139.436 22.9611 139.537 23.0111 139.664 22.9861L142.078 22.4862C142.23 22.4612 142.332 22.2863 142.255 22.1613C141.899 21.3365 141.366 20.7366 140.909 20.3867C139.664 19.4369 138.268 19.312 137.099 19.312C135.93 19.312 134.457 19.4619 133.314 20.1867C132.272 20.8866 131.637 22.0113 131.637 23.1861C131.637 24.3608 132.171 25.2106 132.806 25.7855C133.669 26.5353 134.914 26.8102 135.981 26.9852L137.759 27.2601C138.495 27.3851 139.487 27.5351 139.487 28.4848C139.487 28.7348 139.436 29.1347 138.978 29.4097C138.522 29.6846 137.607 29.7846 137.124 29.7846C136.337 29.7846 135.498 29.5596 134.965 29.1597C134.711 28.9598 134.406 28.6349 134.228 28.1599C134.177 28.06 134.076 27.985 133.949 27.985L131.383 28.3599C131.231 28.3849 131.129 28.5599 131.18 28.7098C131.409 29.2597 131.891 30.1345 132.856 30.8593C134.228 31.8091 135.905 31.9841 137.073 31.9841C138.547 31.9841 140.147 31.7092 141.265 30.9593C142.026 30.4344 142.891 29.4847 142.891 27.91C142.891 26.7602 142.433 25.9605 141.925 25.4606C141.011 24.5857 139.614 24.2859 138.597 24.1358Z" fill="#043E44"/>
<path fill-rule="evenodd" clip-rule="evenodd" d="M208.682 19.312H205.659C205.482 19.312 205.329 19.4619 205.329 19.6369V26.3853C205.329 27.0102 205.253 27.785 204.771 28.4099C204.338 28.9598 203.703 29.2347 203.094 29.2347C202.561 29.2347 202.103 29.0348 201.824 28.6848C201.392 28.135 201.392 27.2601 201.392 26.8102V19.6369C201.392 19.4619 201.24 19.312 201.061 19.312H199.969C198.699 19.312 197.683 20.3117 197.683 21.5614V27.4101C197.683 28.7098 197.861 30.1345 199.105 31.1593C199.74 31.7092 200.605 32.0341 201.747 32.0341C203.602 32.0341 204.897 31.0343 205.558 29.5596H205.609C205.609 30.7843 206.625 31.7841 207.869 31.7841H208.708C208.886 31.7841 209.038 31.6342 209.038 31.4592V19.6369C209.013 19.4619 208.86 19.312 208.682 19.312Z" fill="#043E44"/>
<path fill-rule="evenodd" clip-rule="evenodd" d="M80.0722 19.9373V19.7373V19.5124C80.0722 19.5124 80.0722 19.2374 79.7673 19.1874C79.615 19.1625 79.5388 19.1624 79.3863 19.1624C79.3102 19.1624 79.234 19.1624 79.1577 19.1624C77.9893 19.2374 77.2779 19.7873 76.8715 20.2122C76.5413 20.5621 76.084 21.212 75.957 22.1618H75.9063V19.5374C75.9063 19.3874 75.7792 19.2624 75.6268 19.2624H73.8994C73.2136 19.2624 72.6801 19.8123 72.6801 20.4621V30.6599C72.6801 31.3347 73.2136 31.8596 73.8994 31.8596H76.1094C76.2619 31.8596 76.3888 31.7346 76.3888 31.5846V26.1359C76.3888 24.8111 76.5667 23.6364 77.786 22.8866C78.2686 22.5867 78.8529 22.4617 79.488 22.4617C79.5642 22.4617 79.6404 22.4617 79.6912 22.4617C80.1231 22.5367 80.0722 22.0868 80.0722 22.0868V19.9373Z" fill="#043E44"/>
<path fill-rule="evenodd" clip-rule="evenodd" d="M116.903 19.9373V19.7373V19.5124C116.903 19.5124 116.903 19.2374 116.598 19.1874C116.445 19.1625 116.369 19.1624 116.217 19.1624C116.141 19.1624 116.064 19.1624 115.988 19.1624C114.82 19.2374 114.108 19.7873 113.702 20.2122C113.372 20.5621 112.914 21.212 112.787 22.1618H112.737V19.5374C112.737 19.3874 112.61 19.2624 112.457 19.2624H110.73C110.044 19.2624 109.51 19.8123 109.51 20.4621V30.6599C109.51 31.3347 110.044 31.8596 110.73 31.8596H112.94C113.092 31.8596 113.219 31.7346 113.219 31.5846V26.1359C113.219 24.8111 113.397 23.6364 114.616 22.8866C115.099 22.5867 115.683 22.4617 116.318 22.4617C116.395 22.4617 116.471 22.4617 116.522 22.4617C116.953 22.5367 116.903 22.0868 116.903 22.0868V19.9373Z" fill="#043E44"/>
<path fill-rule="evenodd" clip-rule="evenodd" d="M195.675 19.9373V19.7373V19.5124C195.675 19.5124 195.675 19.2374 195.371 19.1874C195.218 19.1625 195.142 19.1624 194.99 19.1624C194.913 19.1624 194.837 19.1624 194.761 19.1624C193.592 19.2374 192.881 19.7873 192.475 20.2122C192.144 20.5621 191.687 21.212 191.56 22.1618H191.509V19.6623C191.509 19.5124 191.382 19.3874 191.23 19.3874H188.538C188.385 19.3874 188.258 19.5124 188.258 19.6623V31.6346C188.258 31.7845 188.385 31.9095 188.538 31.9095H191.687C191.84 31.9095 191.967 31.7845 191.967 31.6346V26.1859C191.967 24.8612 192.144 23.6864 193.364 22.9366C193.846 22.6367 194.431 22.5117 195.04 22.5117C195.117 22.5117 195.192 22.5117 195.244 22.5117C195.675 22.5867 195.675 22.1368 195.675 22.1368V19.9826V19.9373Z" fill="#043E44"/>
<path fill-rule="evenodd" clip-rule="evenodd" d="M154.425 19.4123H150.36V18.9124V15.7881V15.4382C150.36 15.2882 150.436 14.9883 150.055 14.9883H147.794C147.184 15.0383 146.727 15.4632 146.727 15.9881V19.4123H142.714C142.459 19.4123 142.459 19.5623 142.486 19.6872C142.841 20.862 143.73 21.9867 145 22.0367H146.27C146.473 22.0617 146.651 22.2117 146.727 22.4116V27.7854V28.2603C146.727 28.2603 146.727 29.335 146.931 30.0099C147.032 30.3598 147.261 30.7098 147.565 31.0097C148.379 31.8595 149.623 32.0594 150.563 32.0594C151.275 32.0594 152.24 31.9845 153.052 31.8845C153.205 31.8595 153.306 31.7345 153.306 31.6095V29.485C153.306 29.3101 153.154 29.1851 152.977 29.21C152.621 29.2601 152.214 29.2851 151.935 29.2851C151.529 29.2851 151.122 29.2351 150.792 28.9102C150.385 28.4852 150.385 27.9604 150.385 27.5105V24.936H150.411V22.5616C150.411 22.2866 150.64 22.0617 150.919 22.0367H152.189C153.459 21.9867 154.323 20.862 154.704 19.6872C154.704 19.5623 154.679 19.4123 154.425 19.4123Z" fill="#043E44"/>
<path d="M90.9037 31.825H93.3928C93.3928 29.5948 91.1704 28.8077 89.5258 28.8514H83.6584H81.7471C81.7471 31.0378 83.9696 31.825 85.6142 31.825H90.9037Z" fill="#043E44"/>
<path d="M83.6584 19.3625H89.5258C91.1704 19.3625 93.3928 20.1059 93.3928 22.336H90.9037H85.6142C83.9696 22.336 81.7471 21.5926 81.7471 19.3625H83.6584Z" fill="#043E44"/>
<path d="M83.6584 24.0851H89.5258C91.1704 24.0851 93.3928 24.8722 93.3928 27.0586H90.9037H85.6142C83.9696 27.0586 81.7471 26.3152 81.7471 24.0851H83.6584Z" fill="#043E44"/>
<path d="M120.462 43.6819C118.995 43.6819 118.017 42.5013 118.017 41.102C118.017 39.7464 119.039 38.522 120.462 38.522C121.884 38.522 122.907 39.7464 122.907 41.102C122.907 42.5013 121.929 43.6819 120.462 43.6819ZM120.462 39.7464C119.706 39.7464 119.395 40.4898 119.395 41.102C119.395 41.7579 119.751 42.4575 120.462 42.4575C121.173 42.4575 121.529 41.7579 121.529 41.102C121.529 40.446 121.217 39.7464 120.462 39.7464Z" fill="#043E44"/>
<path d="M127.263 43.6819C126.863 43.6819 126.596 43.3758 126.596 42.9385V41.583H124.818V42.9385C124.818 43.3758 124.552 43.6819 124.152 43.6819C123.752 43.6819 123.485 43.3758 123.485 42.9385V39.2654C123.485 38.8281 123.752 38.522 124.152 38.522C124.552 38.522 124.818 38.8281 124.818 39.2654V40.4023H126.596V39.2654C126.596 38.8281 126.863 38.522 127.263 38.522C127.663 38.522 127.93 38.8281 127.93 39.2654V42.9385C127.93 43.3758 127.663 43.6819 127.263 43.6819Z" fill="#043E44"/>
<path d="M132.506 43.682C132.106 43.682 131.84 43.3759 131.84 42.9386V39.7901H130.684V41.2332C130.684 42.8511 129.973 43.682 128.95 43.682C128.55 43.682 128.373 43.3759 128.373 43.0698C128.373 42.8074 128.506 42.5887 128.773 42.5013C129.039 42.4138 129.35 42.1515 129.35 41.3644V39.3529C129.35 38.9156 129.617 38.6096 130.017 38.6096H132.551C132.951 38.6096 133.218 38.9156 133.218 39.3529V42.9386C133.218 43.3759 132.906 43.682 132.506 43.682Z" fill="#043E44"/>
<path d="M137.616 43.6821C137.305 43.6821 137.082 43.5509 136.993 43.1136C136.771 43.5071 136.194 43.6821 135.705 43.6821C134.593 43.6821 133.837 43.1136 133.837 42.0641C133.837 40.5337 135.66 40.3151 136.949 40.3151V39.9652C136.949 39.7029 136.727 39.6154 136.371 39.6154C135.571 39.6154 135.438 40.0527 135.082 40.0527C134.638 40.0527 134.504 39.7466 134.504 39.4842C134.504 38.9158 135.615 38.4785 136.415 38.4785C137.66 38.4785 138.371 39.0033 138.371 39.9652V42.9387C138.238 43.376 138.015 43.6821 137.616 43.6821ZM136.949 41.3208C136.149 41.3208 135.082 41.2333 135.082 42.0641C135.082 42.4577 135.482 42.5452 135.882 42.5452C136.593 42.5452 136.904 42.1954 136.904 41.5394V41.3208H136.949Z" fill="#043E44"/>
<path d="M142.776 43.6818C142.377 43.6818 142.109 43.3758 142.109 42.9385V40.927L140.242 43.3758C140.109 43.5506 139.932 43.6818 139.665 43.6818C139.265 43.6818 138.998 43.3758 138.998 42.9385V39.2654C138.998 38.8281 139.265 38.522 139.665 38.522C140.065 38.522 140.332 38.8281 140.332 39.2654V41.2331L142.065 38.9155C142.242 38.6531 142.51 38.522 142.731 38.522C143.132 38.522 143.399 38.8281 143.399 39.2654V42.9385C143.488 43.3758 143.176 43.6818 142.776 43.6818ZM139.753 37.2976C139.753 37.0352 139.932 36.8604 140.198 36.8604C140.776 36.8604 140.598 37.4725 141.22 37.4725C141.754 37.4725 141.665 36.8604 142.242 36.8604C142.51 36.8604 142.687 37.079 142.687 37.2976C142.687 37.9535 141.976 38.347 141.22 38.347C140.465 38.347 139.753 37.9535 139.753 37.2976Z" fill="#043E44"/>
<path d="M148.02 43.6819C147.62 43.6819 147.353 43.3758 147.353 42.9385V41.583H145.575V42.9385C145.575 43.3758 145.309 43.6819 144.909 43.6819C144.509 43.6819 144.242 43.3758 144.242 42.9385V39.2654C144.242 38.8281 144.509 38.522 144.909 38.522C145.309 38.522 145.575 38.8281 145.575 39.2654V40.4023H147.353V39.2654C147.353 38.8281 147.62 38.522 148.02 38.522C148.42 38.522 148.687 38.8281 148.687 39.2654V42.9385C148.732 43.3758 148.464 43.6819 148.02 43.6819Z" fill="#043E44"/>
<path d="M151.933 41.4523H149.933C149.577 41.4523 149.4 41.1898 149.4 40.8838C149.4 40.534 149.577 40.2717 149.933 40.2717H151.933C152.289 40.2717 152.467 40.534 152.467 40.8838C152.467 41.1898 152.289 41.4523 151.933 41.4523Z" fill="#043E44"/>
<path d="M155.399 43.6819C153.933 43.6819 152.955 42.5013 152.955 41.102C152.955 39.7464 153.977 38.522 155.399 38.522C155.933 38.522 157.044 38.7407 157.044 39.3529C157.044 39.6152 156.866 40.0088 156.51 40.0088C156.155 40.0088 155.844 39.7464 155.444 39.7464C154.689 39.7464 154.288 40.4023 154.288 41.102C154.288 41.7579 154.689 42.4575 155.444 42.4575C155.8 42.4575 156.289 42.1952 156.466 42.1952C156.778 42.1952 157.044 42.4575 157.044 42.7636C157.089 43.4633 155.888 43.6819 155.399 43.6819Z" fill="#043E44"/>
<path d="M161.668 39.4403L159.401 45.0812C159.267 45.3873 159.089 45.6059 158.779 45.6059C158.334 45.6059 158.067 45.2998 158.067 45.0374C158.067 44.9062 158.112 44.7751 158.156 44.6439L158.734 43.2009L157.223 39.4403C157.179 39.3529 157.179 39.2217 157.179 39.0904C157.179 38.7407 157.533 38.522 157.801 38.522C158.111 38.522 158.378 38.6969 158.467 39.003L159.401 41.583L160.423 39.003C160.556 38.6969 160.779 38.522 161.09 38.522C161.356 38.522 161.712 38.7844 161.712 39.0904C161.712 39.2217 161.712 39.3091 161.668 39.4403Z" fill="#043E44"/>
<path d="M165.889 43.682C165.489 43.682 165.222 43.3759 165.222 42.9386V39.7901H163.444V42.9386C163.444 43.3759 163.178 43.682 162.778 43.682C162.377 43.682 162.111 43.3759 162.111 42.9386V39.3529C162.111 38.9156 162.377 38.6096 162.778 38.6096H165.889C166.289 38.6096 166.556 38.9156 166.556 39.3529V42.9386C166.556 43.3759 166.289 43.682 165.889 43.682Z" fill="#043E44"/>
<path d="M171.311 41.5392H168.422C168.511 42.1952 169.045 42.5013 169.711 42.5013C170.423 42.5013 170.912 41.9765 171.266 41.9765C171.578 41.9765 171.845 42.2826 171.845 42.545C171.845 43.1135 170.644 43.6819 169.622 43.6819C168.111 43.6819 167.089 42.5887 167.089 41.102C167.089 39.7464 168.111 38.522 169.533 38.522C171 38.522 171.978 39.8338 171.978 40.9707C171.934 41.3206 171.755 41.5392 171.311 41.5392ZM169.489 39.6153C168.867 39.6153 168.467 40.0525 168.422 40.621H170.6C170.467 40.0525 170.111 39.6153 169.489 39.6153Z" fill="#043E44"/>
<path d="M175.002 43.6821C174.557 43.6821 174.112 43.5071 173.757 43.2011V44.819C173.757 45.2562 173.49 45.5623 173.09 45.5623C172.69 45.5623 172.424 45.2562 172.424 44.819V39.2219C172.424 38.7846 172.69 38.4785 173.09 38.4785C173.446 38.4785 173.668 38.7408 173.757 39.0907C174.024 38.6972 174.513 38.4785 175.046 38.4785C176.513 38.4785 177.224 39.8341 177.224 41.1459C177.268 42.414 176.38 43.6821 175.002 43.6821ZM174.823 39.7466C174.112 39.7466 173.757 40.4463 173.757 41.0584C173.757 41.7144 174.068 42.4577 174.823 42.4577C175.535 42.4577 175.891 41.7581 175.891 41.1021C175.891 40.4463 175.535 39.7466 174.823 39.7466Z" fill="#043E44"/>
<path d="M183.403 43.6819C182.958 43.6819 182.736 43.4195 182.691 43.0697L182.336 40.5772L181.58 43.2009C181.536 43.3758 181.358 43.6819 180.869 43.6819C180.38 43.6819 180.202 43.4195 180.158 43.2009L179.402 40.5772L179.047 43.0697C179.002 43.3758 178.779 43.6819 178.336 43.6819C177.98 43.6819 177.713 43.4195 177.713 43.026C177.713 42.9823 177.713 42.9386 177.713 42.8948L178.38 39.0904C178.425 38.8281 178.779 38.522 179.224 38.522C179.669 38.522 179.98 38.8281 180.069 39.0904L180.869 41.583L181.624 39.0904C181.713 38.8281 182.025 38.522 182.469 38.522C182.958 38.522 183.27 38.8281 183.314 39.0904L183.98 42.8948C183.98 42.9386 183.98 42.9823 183.98 43.026C184.025 43.3758 183.759 43.6819 183.403 43.6819Z" fill="#043E44"/>
<path d="M188.288 43.6821C187.978 43.6821 187.755 43.5509 187.666 43.1136C187.444 43.5071 186.866 43.6821 186.377 43.6821C185.266 43.6821 184.511 43.1136 184.511 42.0641C184.511 40.5337 186.333 40.3151 187.622 40.3151V39.9652C187.622 39.7029 187.399 39.6154 187.044 39.6154C186.244 39.6154 186.111 40.0527 185.755 40.0527C185.31 40.0527 185.177 39.7466 185.177 39.4842C185.177 38.9158 186.288 38.4785 187.089 38.4785C188.333 38.4785 189.044 39.0033 189.044 39.9652V42.9387C188.911 43.376 188.689 43.6821 188.288 43.6821ZM187.622 41.3208C186.822 41.3208 185.755 41.2333 185.755 42.0641C185.755 42.4577 186.155 42.5452 186.555 42.5452C187.266 42.5452 187.578 42.1954 187.578 41.5394V41.3208H187.622Z" fill="#043E44"/>
<path d="M192.247 43.6821C191.803 43.6821 191.358 43.5071 191.002 43.2011V44.819C191.002 45.2562 190.736 45.5623 190.336 45.5623C189.936 45.5623 189.669 45.2562 189.669 44.819V39.2219C189.669 38.7846 189.936 38.4785 190.336 38.4785C190.692 38.4785 190.913 38.7408 191.002 39.0907C191.269 38.6972 191.758 38.4785 192.292 38.4785C193.758 38.4785 194.469 39.8341 194.469 41.1459C194.514 42.414 193.625 43.6821 192.247 43.6821ZM192.07 39.7466C191.358 39.7466 191.002 40.4463 191.002 41.0584C191.002 41.7144 191.314 42.4577 192.07 42.4577C192.781 42.4577 193.136 41.7581 193.136 41.1021C193.136 40.4463 192.781 39.7466 192.07 39.7466Z" fill="#043E44"/>
<path d="M198.826 43.6821C198.56 43.6821 198.381 43.5072 198.16 43.2885L196.47 41.4957V42.9387C196.47 43.376 196.204 43.6821 195.804 43.6821C195.403 43.6821 195.137 43.376 195.137 42.9387V39.2656C195.137 38.8283 195.403 38.5222 195.804 38.5222C196.204 38.5222 196.47 38.8283 196.47 39.2656V40.5337L198.027 38.7846C198.204 38.6096 198.471 38.4785 198.649 38.4785C199.004 38.4785 199.226 38.7846 199.226 39.0907C199.226 39.2656 199.137 39.4405 198.96 39.6154L197.626 40.9272L199.315 42.5452C199.448 42.6764 199.493 42.8513 199.493 42.9825C199.448 43.4197 199.182 43.6821 198.826 43.6821Z" fill="#043E44"/>
<path d="M203.851 41.5392H200.962C201.051 42.1952 201.585 42.5013 202.251 42.5013C202.962 42.5013 203.451 41.9765 203.807 41.9765C204.118 41.9765 204.384 42.2826 204.384 42.545C204.384 43.1135 203.185 43.6819 202.162 43.6819C200.651 43.6819 199.629 42.5887 199.629 41.102C199.629 39.7464 200.651 38.522 202.074 38.522C203.54 38.522 204.518 39.8338 204.518 40.9707C204.429 41.3206 204.251 41.5392 203.851 41.5392ZM201.984 39.6153C201.362 39.6153 200.962 40.0525 200.917 40.621H203.096C203.006 40.0525 202.651 39.6153 201.984 39.6153Z" fill="#043E44"/>
<path d="M208.384 39.7904H207.45V42.9388C207.45 43.376 207.184 43.6821 206.784 43.6821C206.384 43.6821 206.118 43.376 206.118 42.9388V39.7904H205.184C204.828 39.7904 204.606 39.5718 204.606 39.2219C204.606 38.8722 204.872 38.6535 205.184 38.6535H208.473C208.828 38.6535 209.14 38.7847 209.14 39.2219C209.051 39.6155 208.74 39.7904 208.384 39.7904Z" fill="#043E44"/>
</svg>
