<svg width="199" height="40" viewBox="0 0 199 40" fill="none" xmlns="http://www.w3.org/2000/svg">
<path d="M149.246 26.9883V29.177H152.021V35.8466H154.295V29.1943H157.07V27.0056H149.246V26.9883ZM53.339 33.8302C51.9776 33.8302 50.9608 32.8134 50.9608 31.4175C50.9608 30.0043 51.9776 28.9875 53.339 28.9875C54.2352 28.9875 55.0107 29.4528 55.3554 30.1766L57.3201 29.0219C56.5963 27.6605 55.0969 26.7298 53.3563 26.7298C50.6678 26.7298 48.6859 28.7634 48.6859 31.4002C48.6859 34.037 50.6678 36.0706 53.3563 36.0706C55.0969 36.0706 56.5963 35.1572 57.3546 33.7785L55.3727 32.6411C55.028 33.3821 54.2524 33.8302 53.339 33.8302ZM62.4386 32.934L60.0603 26.9883H57.6303L61.1977 35.7259C60.7669 36.8462 60.1292 37.2598 58.9401 37.2425V39.3623C61.0599 39.4829 62.6971 38.3627 63.6105 35.8293L66.8332 26.9711H64.386L62.4386 32.934ZM67.919 35.8466H70.1938V29.1253H73.7096V35.8466H76.0189V26.9883H67.919V35.8466ZM81.9646 26.7471C79.19 26.7471 77.2942 28.7807 77.2942 31.4175C77.2942 34.0543 79.1727 36.0879 82.137 36.0879C83.8431 36.0879 85.1701 35.3985 85.9974 34.1921L84.1533 33.1236C83.757 33.6406 83.0504 34.0026 82.1714 34.0026C80.9651 34.0026 80 33.5028 79.6725 32.3309H86.3593C86.411 32.0206 86.4454 31.7277 86.4454 31.4002C86.4454 28.8151 84.5842 26.7471 81.9646 26.7471ZM79.638 30.5902C79.8966 29.4528 80.741 28.7979 81.9646 28.7979C82.9125 28.7979 83.8776 29.3149 84.1533 30.5902H79.638ZM92.822 26.7471C91.5295 26.7471 90.5988 27.2296 89.9612 28.0396V26.9883H87.6863V39.3795H89.9612V34.7953C90.5988 35.6053 91.5467 36.0879 92.822 36.0879C95.2003 36.0879 97.1477 34.0543 97.1477 31.4175C97.1477 28.7807 95.2003 26.7471 92.822 26.7471ZM92.4084 33.9164C91.0124 33.9164 89.9612 32.8996 89.9612 31.4175C89.9612 29.9353 91.0124 28.9185 92.4084 28.9185C93.8216 28.9185 94.8728 29.9353 94.8728 31.4175C94.8728 32.8996 93.8216 33.9164 92.4084 33.9164ZM103.007 30.7109L100.646 26.9883H98.4058V35.8466H100.595V30.6419L102.852 34.2094H103.145L105.386 30.6764V35.8466H107.591V26.9883H105.351L103.007 30.7109ZM116.071 28.0396C115.433 27.2468 114.485 26.7471 113.193 26.7471C110.831 26.7471 108.884 28.7807 108.884 31.4175C108.884 34.0543 110.831 36.0879 113.193 36.0879C114.485 36.0879 115.433 35.5881 116.071 34.7953V35.8466H118.363V26.9883H116.071V28.0396ZM113.606 33.9164C112.21 33.9164 111.159 32.8996 111.159 31.4175C111.159 29.9353 112.21 28.9185 113.606 28.9185C115.019 28.9185 116.071 29.9353 116.071 31.4175C116.071 32.8996 115.019 33.9164 113.606 33.9164ZM125.222 26.7471C123.929 26.7471 122.999 27.2296 122.361 28.0396V26.9883H120.086V39.3795H122.361V34.7953C122.999 35.6053 123.947 36.0879 125.222 36.0879C127.6 36.0879 129.548 34.0543 129.548 31.4175C129.548 28.7807 127.6 26.7471 125.222 26.7471ZM124.791 33.9164C123.395 33.9164 122.344 32.8996 122.344 31.4175C122.344 29.9353 123.395 28.9185 124.791 28.9185C126.204 28.9185 127.255 29.9353 127.255 31.4175C127.255 32.8996 126.204 33.9164 124.791 33.9164ZM144.041 26.7471C141.267 26.7471 139.371 28.7807 139.371 31.4175C139.371 34.0543 141.249 36.0879 144.214 36.0879C145.92 36.0879 147.247 35.3985 148.074 34.1921L146.23 33.1236C145.834 33.6406 145.127 34.0026 144.248 34.0026C143.042 34.0026 142.077 33.5028 141.749 32.3309H148.419C148.47 32.0206 148.505 31.7277 148.505 31.4002C148.522 28.8151 146.661 26.7471 144.041 26.7471ZM141.732 30.5902C141.99 29.4528 142.835 28.7979 144.059 28.7979C145.006 28.7979 145.971 29.3149 146.247 30.5902H141.732ZM139.147 26.9883H136.424L133.873 30.573H133.098V26.9883H130.823V35.8466H133.098V32.3653H134.046L136.596 35.8466H139.25L135.855 31.3658L139.147 26.9883Z" fill="white"/>
<path d="M161.034 8.85824H164.774V17.8027H167.841V8.85824H171.581V5.91124H161.051V8.85824H161.034ZM69.763 5.58379C66.0232 5.58379 63.4898 8.32399 63.4898 11.8569C63.4898 15.4071 66.006 18.1301 70.0043 18.1301C72.2964 18.1301 74.0715 17.1995 75.1917 15.5795L72.71 14.1491C72.193 14.8384 71.2279 15.3382 70.0387 15.3382C68.4187 15.3382 67.109 14.6661 66.6781 13.0978H75.6398C75.7087 12.7014 75.7604 12.2878 75.7604 11.8397C75.7776 8.35846 73.2787 5.58379 69.763 5.58379ZM66.6436 10.7367C67.0056 9.22015 68.1258 8.34122 69.763 8.34122C71.0555 8.34122 72.3308 9.03058 72.71 10.7367H66.6436ZM84.8427 5.58379C83.1021 5.58379 81.844 6.22145 80.9823 7.32442V5.92847H77.9146V22.5765H80.9823V16.4067C81.844 17.5097 83.1021 18.1473 84.8427 18.1473C88.031 18.1473 90.6505 15.4071 90.6505 11.8742C90.6505 8.30676 88.031 5.58379 84.8427 5.58379ZM84.274 15.2176C82.3955 15.2176 80.9995 13.8561 80.9995 11.8569C80.9995 9.85781 82.3955 8.49633 84.274 8.49633C86.1697 8.49633 87.5829 9.85781 87.5829 11.8569C87.5829 13.8561 86.1697 15.2176 84.274 15.2176ZM98.4748 5.58379C94.735 5.58379 92.2016 8.32399 92.2016 11.8569C92.2016 15.4071 94.7178 18.1301 98.716 18.1301C101.008 18.1301 102.783 17.1995 103.903 15.5795L101.422 14.1491C100.905 14.8384 99.9396 15.3382 98.7505 15.3382C97.1305 15.3382 95.8207 14.6661 95.3899 13.0978H104.352C104.42 12.7014 104.472 12.2878 104.472 11.8397C104.489 8.35846 101.99 5.58379 98.4748 5.58379ZM95.3554 10.7367C95.7173 9.22015 96.8375 8.34122 98.4748 8.34122C99.7673 8.34122 101.043 9.03058 101.422 10.7367H95.3554ZM126.928 5.58379C125.187 5.58379 123.929 6.22145 123.068 7.32442V5.92847H120V22.5765H123.068V16.4067C123.929 17.5097 125.187 18.1473 126.928 18.1473C130.116 18.1473 132.736 15.4071 132.736 11.8742C132.736 8.30676 130.116 5.58379 126.928 5.58379ZM126.359 15.2176C124.481 15.2176 123.085 13.8561 123.085 11.8569C123.085 9.85781 124.481 8.49633 126.359 8.49633C128.255 8.49633 129.668 9.85781 129.668 11.8569C129.668 13.8561 128.255 15.2176 126.359 15.2176ZM138.165 4.65316C139.043 4.65316 139.75 3.94657 139.75 3.0504C139.75 2.17147 139.043 1.43041 138.165 1.43041C137.286 1.43041 136.545 2.17147 136.545 3.0504C136.545 3.92934 137.286 4.65316 138.165 4.65316ZM142.68 4.65316C143.559 4.65316 144.283 3.94657 144.283 3.0504C144.283 2.17147 143.576 1.43041 142.68 1.43041C141.801 1.43041 141.06 2.17147 141.06 3.0504C141.06 3.92934 141.801 4.65316 142.68 4.65316ZM140.56 5.58379C136.82 5.58379 134.287 8.32399 134.287 11.8569C134.287 15.4071 136.803 18.1301 140.801 18.1301C143.093 18.1301 144.869 17.1995 145.989 15.5795L143.507 14.1491C142.99 14.8384 142.025 15.3382 140.836 15.3382C139.216 15.3382 137.906 14.6661 137.475 13.0978H146.437C146.506 12.7014 146.557 12.2878 146.557 11.8397C146.575 8.35846 144.093 5.58379 140.56 5.58379ZM137.441 10.7367C137.803 9.22015 138.923 8.34122 140.56 8.34122C141.853 8.34122 143.128 9.03058 143.507 10.7367H137.441ZM154.278 15.0969C152.451 15.0969 151.09 13.7354 151.09 11.8569C151.09 9.96122 152.451 8.59973 154.278 8.59973C155.485 8.59973 156.519 9.22015 156.984 10.1853L159.621 8.6342C158.638 6.8074 156.622 5.56656 154.296 5.56656C150.676 5.56656 148.022 8.30676 148.022 11.8397C148.022 15.3899 150.694 18.1129 154.296 18.1129C156.622 18.1129 158.656 16.872 159.673 15.028L157.001 13.5114C156.536 14.4937 155.502 15.0969 154.278 15.0969ZM178.854 5.58379C175.355 5.58379 172.581 8.32399 172.581 11.8569C172.581 15.4071 175.355 18.1301 178.854 18.1301C182.352 18.1301 185.162 15.3899 185.162 11.8569C185.162 8.30676 182.352 5.58379 178.854 5.58379ZM178.854 15.1486C177.044 15.1486 175.648 13.7871 175.648 11.8569C175.648 9.92675 177.044 8.5825 178.854 8.5825C180.681 8.5825 182.094 9.94398 182.094 11.8569C182.077 13.7871 180.681 15.1486 178.854 15.1486ZM117.846 5.91124H114.175L110.745 10.7367H109.694V5.91124H106.626V17.8027H109.694V13.115H110.987L114.416 17.8027H117.984L113.434 11.788L117.846 5.91124ZM193.779 11.788L198.19 5.91124H194.52L191.09 10.7367H190.039V5.91124H186.971V17.8027H190.039V13.115H191.331L194.761 17.8027H198.328L193.779 11.788ZM49.0133 17.8027H52.2878V4.51529H58.1645V17.8199H61.4562V1.44765H49.0133V17.8027Z" fill="white"/>
<path d="M25.2478 12.6325L20.0087 17.8716L14.7695 12.6325C11.8742 9.73718 11.8742 5.04955 14.7695 2.17148C17.6648 -0.723826 22.3525 -0.723826 25.2478 2.17148C28.1431 5.06678 28.1431 9.75441 25.2478 12.6325Z" fill="white"/>
<path d="M14.7694 27.3503L20.0086 22.1111L25.2477 27.3503C28.143 30.2456 28.143 34.9332 25.2477 37.8285C22.3524 40.7238 17.6647 40.7238 14.7867 37.8285C11.8914 34.9332 11.8914 30.2456 14.7694 27.3503Z" fill="white"/>
<path d="M27.3675 25.2305L22.1284 19.9913L27.3675 14.7522C30.2628 11.8569 34.9504 11.8569 37.8457 14.7522C40.741 17.6475 40.741 22.3352 37.8457 25.2305C34.9504 28.1258 30.2628 28.1258 27.3675 25.2305Z" fill="white"/>
<path d="M12.6497 14.7523L17.8888 19.9914L12.6497 25.2305C9.75441 28.1258 5.06678 28.1258 2.17148 25.2305C-0.723826 22.3352 -0.723826 17.6476 2.17148 14.7523C5.08401 11.8742 9.77165 11.8742 12.6497 14.7523Z" fill="white"/>
</svg>
