<svg width="450" height="85" viewBox="0 0 450 85" fill="none" xmlns="http://www.w3.org/2000/svg">
<path fill-rule="evenodd" clip-rule="evenodd" d="M16.8331 75.2971C16.5387 75.4381 16.4296 77.0764 14.8972 78.0768C12.1189 79.8975 8.77891 77.5918 5.56332 77.2802C1.89843 76.9396 -0.0400468 79.1141 0.000627198 81.2867C0.0502353 83.7004 2.59365 84.8766 3.98762 84.1873C4.20439 84.0622 4.4536 82.5164 5.88448 81.4156C8.67688 79.2688 12.0117 82.1411 15.2724 82.282C19.3092 82.4656 20.6266 80.2165 20.6329 78.2761C20.631 75.8933 18.1186 74.6705 16.8331 75.2971ZM48.5493 71.1373C49.2538 70.7391 49.8186 70.1337 50.167 69.4034C50.5154 68.673 50.6306 67.8531 50.4968 67.0551C49.8415 62.9917 44.6576 62.6651 40.5552 63.3267C37.5588 63.7888 34.6209 64.5717 31.7919 65.6618C31.7692 65.6681 31.748 65.6788 31.7295 65.6933C31.7109 65.7077 31.6954 65.7257 31.6838 65.7462C31.6722 65.7667 31.6648 65.7893 31.6619 65.8126C31.659 65.836 31.6608 65.8597 31.6671 65.8824C31.6671 65.8824 33.0972 74.7516 33.5322 77.4474C33.5447 77.5257 33.551 77.5649 33.5574 77.6037C33.5637 77.6425 33.5698 77.6818 33.5698 77.6818C34.1559 81.3154 37.3596 85.7696 44.5875 84.6041C49.7834 83.766 54.2319 80.5233 53.4192 75.4833C53.0218 73.0217 51.2146 71.5092 48.5489 71.1373H48.5493ZM43.5824 69.1722C43.803 70.5399 43.0182 71.3879 41.4549 71.6409L40.7124 71.7606C40.4919 70.3932 40.2657 68.9863 40.0823 67.8535C40.3469 67.7232 40.6308 67.6369 40.9231 67.5977C41.8212 67.4519 43.3109 67.4921 43.582 69.1722H43.5824ZM44.1756 80.0604C42.6128 80.3124 41.9562 78.9751 41.67 77.6985C41.5567 76.9953 41.4244 76.1747 41.2859 75.3152C41.6703 75.2131 42.2954 75.1123 42.6862 75.0493C44.4053 74.7721 45.8204 75.3455 46.06 76.8302C46.337 78.5494 45.6599 79.8211 44.174 80.0604H44.1756ZM87.6387 75.1798C83.0973 73.6358 82.6097 70.0673 80.7777 68.1831C79.7317 67.1578 78.5533 66.6674 76.8159 67.1251C76.7218 65.7411 77.1234 63.5367 78.6793 63.5409C79.996 63.5353 79.8631 65.0277 79.9369 65.6167C80.0108 66.2056 81.0713 66.3925 82.0529 66.2686C84.5267 65.9581 86.1408 64.1997 85.8107 61.569C85.4855 58.9774 83.2562 57.4224 80.3895 57.7821C75.1668 58.4374 73.5895 64.9374 73.5662 67.9318C73.4533 67.9859 73.3797 68.035 73.2669 68.0891C73.0946 66.7146 72.9467 65.5367 72.8531 64.7905C72.3897 61.0993 69.7873 59.1124 66.6462 59.5066C64.4472 59.7827 62.5188 61.5803 62.2445 62.8922C62.0242 63.9972 64.5269 62.3266 65.3103 68.5701C65.6505 71.2798 66.4598 80.2722 66.4598 80.2722C66.4669 80.3174 66.4885 80.359 66.5212 80.3909C66.554 80.4227 66.5962 80.4431 66.6415 80.449L74.5344 79.4585C74.5813 79.4365 74.6193 79.3994 74.6425 79.353C74.6656 79.3067 74.6724 79.2539 74.6618 79.2032C74.6618 79.2032 74.1347 75.0015 73.637 71.0352C76.1404 70.9605 75.0354 80.2732 83.1248 79.258C84.0572 79.1326 84.955 78.8215 85.765 78.343C86.5751 77.8645 87.281 77.2284 87.8409 76.4724C88.3703 75.6065 88.3064 75.4151 87.6387 75.1798ZM146.176 69.7847C141.656 68.0743 141.343 64.4865 139.544 62.5384C139.034 61.9775 138.381 61.5666 137.655 61.35C136.929 61.1333 136.158 61.1193 135.424 61.3092L135.384 61.3128C135.573 59.8264 136.231 57.8223 137.651 57.6982C139.108 57.5708 138.788 59.3468 138.84 59.9381C138.891 60.5294 139.945 60.7553 140.89 60.6726C143.413 60.452 145.093 58.7559 144.862 56.1145C144.634 53.5123 142.426 51.878 139.548 52.1296C134.344 52.5846 132.626 59.2896 132.348 62.0153L132.082 62.1577L131.359 53.8784C131.341 53.6813 131.227 53.7309 131.227 53.7309L123.577 54.3996C123.556 54.401 123.536 54.4065 123.517 54.416C123.499 54.4254 123.482 54.4386 123.469 54.4546C123.455 54.4706 123.445 54.4892 123.439 54.5092C123.433 54.5292 123.431 54.5502 123.433 54.571L124.158 62.8504L123.833 62.7596C123.127 59.683 120.27 53.8149 115.026 54.2722C112.148 54.5237 110.296 56.513 110.524 59.1154C110.754 61.7569 112.702 63.1358 115.186 62.9188C116.132 62.836 117.13 62.4312 117.078 61.8396C117.026 61.2481 116.559 59.5412 118.019 59.4138C119.438 59.2896 120.158 61.1731 120.602 62.6045C114.153 62.453 116.54 72.4939 112.716 72.828C110.705 73.0038 109.374 71.4119 108.663 64.6412C108.421 60.9676 108.138 55.9074 108.138 55.9074C108.133 55.862 108.113 55.8197 108.081 55.7867C108.05 55.7537 108.008 55.7318 107.963 55.7242L100.078 56.4133C100.024 56.4293 99.9774 56.4631 99.9453 56.5092C99.9133 56.5553 99.8978 56.611 99.9015 56.667L100.139 59.3875C98.7243 57.2865 96.6579 55.9177 93.9377 56.1556C88.7731 56.607 86.4749 62.1312 86.947 67.5323C87.409 72.8155 90.6476 78.0542 95.6152 77.6202C98.2955 77.3851 100.267 75.3867 101.39 72.7852C103.438 76.2213 107.362 77.0303 112.212 76.6064C117.062 76.1825 122.723 75.0521 123.785 66.2987C123.819 66.1572 123.9 66.0315 124.015 65.9421C124.13 65.8527 124.272 65.805 124.417 65.8066L125.134 74.007C125.132 74.0309 125.135 74.0548 125.143 74.0773C125.151 74.0998 125.164 74.1204 125.181 74.1377C125.197 74.155 125.217 74.1686 125.239 74.1777C125.261 74.1868 125.285 74.1911 125.309 74.1904L132.918 73.5253C132.942 73.5219 132.965 73.5136 132.985 73.5008C133.005 73.488 133.023 73.4711 133.036 73.4511C133.049 73.4311 133.058 73.4085 133.062 73.3849C133.066 73.3612 133.065 73.3369 133.059 73.3137L132.342 65.1131C134.814 65.2149 133.392 74.3968 141.514 73.687C143.682 73.4973 145.514 72.1852 146.292 71.0844C146.891 70.2387 146.795 70.0485 146.176 69.7847ZM98.4892 71.8873C96.5573 72.0561 95.3256 69.7802 95.067 66.8233C94.8083 63.8663 95.6235 61.3718 97.5554 61.2041C99.4872 61.0365 100.722 63.3507 100.981 66.3074C101.24 69.2642 100.421 71.7182 98.4892 71.8873ZM172.687 70.9513L172.466 66.7226C172.454 66.4854 172.335 66.4915 172.335 66.4915L169.607 66.6326C169.318 61.0605 168.86 52.2862 168.829 51.6933C168.82 51.5353 168.742 51.5395 168.702 51.5414C162.312 50.6066 156.704 50.9783 151.47 52.4402C151.444 52.4409 151.418 52.4469 151.395 52.4578C151.371 52.4688 151.35 52.4844 151.332 52.5039C151.314 52.5233 151.301 52.5461 151.292 52.5709C151.284 52.5956 151.28 52.6219 151.282 52.648C151.282 52.648 151.129 59.5913 150.427 62.8379C149.057 69.2501 146.769 68.6957 146.806 69.4069C146.808 69.4466 146.81 69.4861 146.812 69.5244C146.889 70.9866 147.235 77.6263 147.258 78.061C147.28 78.4957 148.553 78.5879 149.068 78.5611C153.06 78.353 155.084 76.147 154.91 72.8273C154.901 72.6295 154.849 72.3944 154.84 72.1969L164.759 71.6797C164.837 73.1816 165.02 76.699 165.044 77.1342C165.067 77.5694 166.457 77.655 166.931 77.6301C170.924 77.422 172.96 75.4137 172.727 70.9873L172.687 70.9513ZM161.066 55.5867C161.24 58.9067 161.484 63.6098 161.665 67.048L157.278 67.277C157.372 66.8813 157.443 66.4806 157.492 66.0768C157.77 63.8035 157.998 59.0362 158.103 55.7414L161.066 55.5867ZM194.221 60.7005C194.021 54.7676 189.152 50.1011 182.783 50.3162C176.414 50.5313 171.871 55.5159 172.071 61.4491C172.273 67.4209 177.143 72.0488 183.509 71.8337C189.996 71.6148 194.423 66.6737 194.221 60.7005ZM179.863 61.1858C179.748 57.7842 180.601 54.8646 182.933 54.7859C185.228 54.7083 186.314 57.5623 186.429 60.9639C186.547 64.4447 185.731 67.2838 183.359 67.364C181.064 67.4421 179.976 64.5093 179.863 61.1863V61.1858ZM222.309 50.3651C222.313 50.3467 222.312 50.3277 222.308 50.3095C222.303 50.2913 222.295 50.2742 222.283 50.2594C222.272 50.2446 222.257 50.2325 222.241 50.2237C222.224 50.2149 222.206 50.2098 222.187 50.2085L213.324 50.3376C213.282 50.3348 213.241 50.3451 213.206 50.3669C213.171 50.3887 213.144 50.421 213.128 50.4592L209.357 57.9549L209.24 57.9566L205.57 50.6087C205.551 50.5689 205.523 50.5341 205.488 50.5071C205.454 50.4801 205.413 50.4616 205.37 50.4533L197.061 50.5741C197.037 50.5757 197.014 50.5823 196.993 50.5936C196.972 50.6048 196.953 50.6204 196.938 50.6394C196.924 50.6583 196.913 50.6801 196.908 50.7034C196.902 50.7267 196.901 50.7509 196.906 50.7744C196.906 50.7744 197.404 57.9307 196.551 61.822C195.18 68.2537 193.826 67.64 193.84 68.5896C193.852 69.4208 195.462 71.2574 198.034 71.22C201.199 71.173 203.465 69.1621 204.065 64.0478C204.186 62.6654 204.231 61.2775 204.201 59.8901L208.346 69.9617C208.38 70.0597 208.445 70.1435 208.532 70.1998C208.619 70.256 208.723 70.2813 208.826 70.2716L209.813 70.257C210.171 70.2519 210.248 70.1717 210.324 69.9331L215.179 58.1867L214.845 62.4657C214.903 66.5021 214.915 70.0243 214.915 70.0243C214.912 70.048 214.913 70.0721 214.92 70.0951C214.927 70.1182 214.938 70.1396 214.953 70.158C214.968 70.1764 214.987 70.1914 215.009 70.2021C215.03 70.2128 215.054 70.2188 215.077 70.2199L222.754 70.1082C222.778 70.1065 222.801 70.0997 222.822 70.0884C222.843 70.0771 222.861 70.0616 222.876 70.0427C222.891 70.0238 222.901 70.0021 222.907 69.9789C222.912 69.9557 222.913 69.9316 222.909 69.9081C222.909 69.9081 222.321 51.2757 222.309 50.3656V50.3651ZM255.667 50.5036C249.904 49.1635 241.276 49.1698 235.563 50.2438C235.542 50.2431 235.521 50.2467 235.501 50.2543C235.482 50.2619 235.464 50.2733 235.449 50.2879C235.434 50.3025 235.423 50.32 235.415 50.3393C235.407 50.3586 235.402 50.3793 235.403 50.4002C235.391 51.3103 235.149 69.9102 235.149 69.9102C235.145 69.9339 235.146 69.9581 235.152 69.9814C235.158 70.0046 235.168 70.0263 235.183 70.0452C235.198 70.064 235.217 70.0795 235.238 70.0907C235.259 70.1019 235.282 70.1085 235.306 70.1101L242.943 70.2088C242.969 70.2097 242.995 70.2052 243.019 70.1958C243.044 70.1863 243.066 70.1721 243.085 70.1539C243.104 70.1357 243.119 70.1138 243.129 70.0897C243.139 70.0656 243.145 70.0397 243.145 70.0135C243.145 70.0135 243.274 59.8429 243.352 53.9858L247.784 54.0432C247.711 59.7023 247.577 70.0708 247.577 70.0708C247.572 70.0943 247.573 70.1184 247.579 70.1416C247.585 70.1647 247.595 70.1864 247.61 70.2053C247.624 70.2241 247.643 70.2397 247.664 70.251C247.685 70.2622 247.708 70.2689 247.732 70.2707L255.371 70.3694C255.394 70.3683 255.418 70.3622 255.439 70.3515C255.46 70.3408 255.479 70.3257 255.494 70.3072C255.509 70.2887 255.52 70.2673 255.527 70.2442C255.533 70.2212 255.534 70.1971 255.53 70.1736C255.53 70.1736 255.742 53.8295 255.782 50.6635C255.784 50.466 255.667 50.5041 255.667 50.5041V50.5036ZM278.545 68.1965C278.705 62.9352 278.933 51.4203 278.933 51.4203C278.938 51.3969 278.938 51.3728 278.933 51.3495C278.928 51.3263 278.918 51.3043 278.904 51.2852C278.889 51.266 278.871 51.2501 278.85 51.2385C278.83 51.2268 278.807 51.2197 278.783 51.2176L271.146 50.987C271.123 50.9876 271.099 50.9933 271.078 51.0037C271.056 51.014 271.037 51.0288 271.022 51.047C271.007 51.0653 270.995 51.0866 270.989 51.1095C270.982 51.1324 270.981 51.1564 270.984 51.18C270.984 51.18 270.857 55.3335 270.686 61.0299C270.467 65.6557 266.705 66.9279 266.825 62.9722C266.907 60.2425 266.992 57.4339 267.034 56.0891C267.147 52.3706 264.606 49.9972 261.401 49.9003C259.184 49.8335 257.002 51.311 256.53 52.5643C256.142 53.6223 259.189 52.3675 258.998 58.6572C258.909 61.624 258.885 62.3757 258.836 64.0372C258.716 67.9929 261.131 70.6396 264.058 70.7282C266.153 70.7914 268.88 69.686 270.603 66.3331C270.563 67.7176 270.521 69.0627 270.486 70.2888C270.295 72.6587 268.398 75.1356 265.233 75.0399C260.804 74.9059 259.744 71.944 258.798 71.757C258.366 71.6646 257.961 72.0088 258.535 73.9671C258.963 75.4845 261.497 79.4414 267.272 79.6158C274.591 79.8368 278.576 75.0476 278.545 68.197V68.1965ZM294.845 61.594C297.164 61.1489 299.195 60.0961 299.32 57.4476C299.548 52.6643 294.274 51.0681 289.925 50.8626C286.525 50.702 280.814 51.6603 280.628 55.6132C280.607 56.0952 280.683 56.5765 280.851 57.0288C281.019 57.481 281.276 57.8951 281.606 58.2467C281.937 58.5982 282.334 58.8801 282.775 59.0758C283.216 59.2715 283.691 59.377 284.174 59.386C285.479 59.4479 286.92 59.1197 287.094 58.811C287.345 58.5053 287.211 57.9846 287.249 57.1939C287.324 55.6128 288.352 54.8294 289.657 54.8898C291.119 54.9589 291.66 56.0938 291.606 57.2409C291.561 58.1896 290.903 59.545 289.24 59.4667L287.858 59.4013C287.837 59.4 287.816 59.4028 287.796 59.4097C287.776 59.4166 287.758 59.4274 287.743 59.4414C287.727 59.4555 287.715 59.4725 287.706 59.4915C287.697 59.5105 287.692 59.5311 287.691 59.552C287.649 60.4612 287.519 63.2282 287.519 63.2282C287.514 63.2515 287.514 63.2757 287.519 63.299C287.524 63.3224 287.534 63.3445 287.548 63.3638C287.562 63.3832 287.58 63.3993 287.6 63.4113C287.621 63.4233 287.644 63.4307 287.668 63.4332L288.577 63.4762C290.87 63.5846 291.225 65.3049 291.178 66.2933C291.17 66.5894 291.102 66.8808 290.977 67.1496C290.853 67.4184 290.675 67.6588 290.454 67.8562C290.233 68.0535 289.974 68.2036 289.693 68.2972C289.412 68.3908 289.115 68.4259 288.82 68.4004C287.632 68.3444 286.762 67.4712 286.838 65.8901C286.873 65.1389 287.056 64.6325 286.835 64.2655C286.692 63.942 285.286 63.5188 283.981 63.4572C281.769 63.3526 280.186 64.9419 280.095 66.879C279.911 70.7924 285.507 72.2849 288.904 72.4454C293.254 72.6509 298.906 71.2541 299.131 66.4711C299.256 63.863 297.225 62.3804 294.845 61.594ZM328.278 66.0107C328.48 63.0483 328.584 61.5093 328.697 59.8508C328.967 55.9022 326.653 53.166 323.693 52.964C321.323 52.8025 318.058 54.1664 316.245 58.6443C315.046 57.8361 313.655 57.3581 312.213 57.2585C311.154 57.1931 310.09 57.2136 309.034 57.3197C309.204 54.8715 309.331 52.9762 309.331 52.9762C309.338 52.9251 309.329 52.8727 309.303 52.8277C309.278 52.7827 309.238 52.7477 309.189 52.7284L301.57 52.2086C301.525 52.217 301.484 52.2397 301.453 52.2734C301.422 52.307 301.403 52.3498 301.398 52.3953C301.4 52.3558 300.766 61.6744 300.582 64.3596C300.333 67.9922 302.129 73.0732 309.434 73.5716C314.686 73.9297 319.193 70.6668 319.541 65.5732C319.693 63.6198 319.102 61.6812 317.886 60.1447C318.857 57.5531 320.851 57.4114 320.632 60.6098C320.449 63.2947 320.202 66.9274 320.11 68.2699C319.856 71.9816 322.346 74.4533 325.506 74.6677C327.716 74.8186 329.954 73.424 330.474 72.1901C330.942 71.1516 327.85 72.2896 328.278 66.0112V66.0107ZM309.944 69.0048C308.562 68.9108 308.397 67.2728 308.461 65.7302C308.55 64.4273 308.67 62.6898 308.79 60.9131C309.053 60.881 309.319 60.8726 309.584 60.8879C311.322 61.0055 312.248 62.5769 312.091 64.8671C311.945 66.9998 311.564 69.1158 309.944 69.0053V69.0048ZM347.529 54.8983C344.771 54.6432 342.469 56.3381 340.887 58.8152C340.595 55.9661 338.663 54.0784 335.943 53.8271C333.737 53.623 331.466 54.9632 330.916 56.1843C330.465 57.2155 332.952 56.0943 332.374 62.3602C332.122 65.0795 330.528 82.7385 330.528 82.7385C330.523 82.7615 330.523 82.7853 330.527 82.8084C330.532 82.8315 330.541 82.8535 330.553 82.8731C330.566 82.8928 330.583 82.9097 330.602 82.9229C330.622 82.9361 330.644 82.9454 330.667 82.9501L338.55 83.679C338.606 83.6727 338.658 83.6478 338.697 83.6081C338.737 83.5685 338.762 83.5165 338.769 83.4608C338.769 83.4608 339.274 77.9827 339.824 72.0321C340.842 74.3519 342.631 76.0675 345.352 76.3189C350.512 76.7961 353.722 71.7667 354.22 66.3676C354.709 61.0866 352.494 55.3572 347.529 54.8983ZM342.69 70.7068C340.76 70.5284 339.956 68.0296 340.229 65.074C340.501 62.1185 341.747 59.8485 343.678 60.0269C345.608 60.2054 346.414 62.6649 346.142 65.6204C345.869 68.576 344.62 70.8855 342.69 70.7068ZM367.405 62.2243C366.35 62.1123 365.288 62.0841 364.229 62.1401C364.506 59.7023 364.722 57.8141 364.722 57.8141C364.732 57.7634 364.725 57.7109 364.701 57.6649C364.678 57.6189 364.64 57.582 364.593 57.5602L357.004 56.6931C356.958 56.6994 356.916 56.7203 356.884 56.7524C356.851 56.7846 356.83 56.8265 356.823 56.8718C356.827 56.8325 355.767 66.1116 355.461 68.786C355.048 72.4034 356.611 77.5612 363.885 78.3923C369.114 78.9899 374.08 75.9721 374.66 70.8998C375.189 66.2607 371.613 62.7051 367.405 62.2243ZM364.72 73.8678C363.345 73.7106 363.147 72.2926 363.227 70.9088C363.382 69.5324 363.599 67.645 363.82 65.7182C364.084 65.7004 364.35 65.7041 364.614 65.7295C366.385 65.9317 367.511 67.5742 367.25 69.8548C367.008 71.978 366.373 74.0564 364.72 73.8678ZM396.646 79.1263C392.658 76.463 393.107 72.8896 391.823 70.5968C391.076 69.3361 390.065 68.5586 388.269 68.5513C388.534 67.1898 389.491 65.1639 390.993 65.5694C392.265 65.9035 391.753 67.3111 391.673 67.8994C391.593 68.4876 392.569 68.9407 393.549 69.0749C396.02 69.4135 398.033 68.1312 398.392 65.5043C398.747 62.9167 396.993 60.8393 394.132 60.4471C388.918 59.7328 385.715 65.6054 384.921 68.4923C384.798 68.5158 384.714 68.544 384.591 68.5671C384.78 67.1947 384.942 66.0185 385.043 65.2737C385.548 61.5881 383.545 58.9962 380.409 58.5674C378.213 58.2667 375.888 59.5057 375.283 60.7015C374.785 61.7125 377.635 60.7438 376.781 66.9777C376.41 69.6831 374.872 78.5797 374.872 78.5797C374.867 78.625 374.877 78.6707 374.901 78.7099C374.924 78.7491 374.959 78.7797 375.001 78.7971L382.882 79.8765C382.933 79.8674 382.98 79.8413 383.014 79.8026C383.049 79.7638 383.069 79.7146 383.073 79.6628C383.073 79.6628 383.646 75.4675 384.189 71.5076C386.628 72.0812 383.157 80.7928 391.233 81.8994C392.167 82.019 393.114 81.9503 394.02 81.6973C394.927 81.4442 395.773 81.012 396.509 80.4262C397.243 79.7272 397.231 79.526 396.646 79.1263ZM416.773 78.8522C416.705 78.7886 416.617 78.7497 416.523 78.7418C416.43 78.7339 416.337 78.7573 416.258 78.8084C411.06 80.6893 405.928 79.4522 405.197 75.3232C410.176 77.016 417.443 77.4378 418.443 71.3047C418.894 68.5304 416.776 64.0563 410.369 63.0131C403.652 61.9189 398.435 66.1222 397.506 71.8252C397.273 73.2231 397.318 74.6534 397.638 76.0338C397.959 77.4143 398.55 78.7178 399.376 79.8695C400.202 81.0211 401.247 81.9983 402.452 82.7448C403.656 83.4914 404.997 83.9926 406.396 84.2197C412.099 85.1484 416.091 81.0669 416.787 79.4961C416.964 79.1637 416.91 78.9946 416.773 78.851V78.8522ZM408.22 67.5951C408.535 67.4635 408.873 67.3959 409.214 67.3962L409.332 67.4153C409.337 67.4164 409.342 67.4163 409.348 67.4152C409.353 67.4142 409.358 67.412 409.362 67.4089C409.366 67.4058 409.369 67.4019 409.372 67.3974C409.375 67.3928 409.376 67.3878 409.377 67.3826C409.643 67.3988 409.903 67.4707 410.14 67.5936C410.376 67.7166 410.585 67.8878 410.751 68.0963C410.917 68.3048 411.038 68.5459 411.106 68.804C411.173 69.0621 411.186 69.3315 411.142 69.5947C410.799 71.7041 408.871 72.7135 405.446 71.8349C405.914 69.9462 406.805 68.1664 408.22 67.5951ZM447.434 77.793C447.107 77.8057 446.357 79.266 444.554 79.5761C441.281 80.1448 439.13 76.7028 436.304 75.1412C433.073 73.3739 430.433 74.6004 429.608 76.6109C428.696 78.8461 430.562 80.935 432.114 80.8555C432.363 80.8266 433.205 79.507 434.957 79.0645C438.37 78.2019 440.291 82.1618 443.23 83.5849C446.863 85.3558 448.962 83.8142 449.74 82.0358C450.683 79.8483 448.861 77.7288 447.434 77.793ZM119.678 17.6863C119.378 17.7935 119.107 19.3716 117.52 20.1879C114.642 21.6747 111.633 19.1019 108.546 18.4763C105.025 17.7771 102.927 19.6911 102.747 21.8031C102.552 24.1495 104.901 25.5465 106.323 25.018C106.546 24.9185 106.943 23.4441 108.442 22.5202C111.367 20.7185 114.313 23.8405 117.461 24.3051C121.359 24.8894 122.863 22.8404 123.065 20.9586C123.302 18.6467 120.988 17.2076 119.678 17.6863ZM158.364 0.00794928L150.355 0.541416C150.33 0.542587 150.305 0.548895 150.282 0.559963C150.259 0.571032 150.238 0.586632 150.221 0.605825C150.205 0.625018 150.192 0.647409 150.184 0.671652C150.176 0.695895 150.173 0.721489 150.175 0.7469L150.95 11.2168L144.249 11.6635C144.142 10.0459 143.993 7.23216 143.916 6.07683C143.624 1.6864 140.884 0.0507409 137.996 0.243296C135.763 0.391885 133.403 2.13498 133.064 3.4342C132.782 4.42001 134.984 3.22895 135.713 7.78373C135.716 7.82229 137.039 28.8545 137.039 28.8545C137.033 28.8782 137.034 28.9027 137.04 28.9262C137.047 28.9496 137.058 28.9711 137.075 28.989C137.091 29.0069 137.112 29.0206 137.134 29.0289C137.157 29.0373 137.182 29.04 137.206 29.0369L145.139 28.5086C145.164 28.5074 145.189 28.501 145.212 28.4898C145.235 28.4787 145.256 28.463 145.272 28.4437C145.289 28.4245 145.302 28.402 145.31 28.3777C145.318 28.3535 145.32 28.3279 145.318 28.3024L144.542 17.2137L151.32 16.7626L151.982 27.8597C151.977 27.8834 151.977 27.908 151.983 27.9314C151.99 27.9548 152.002 27.9764 152.018 27.9943C152.034 28.0122 152.055 28.0259 152.077 28.0342C152.1 28.0425 152.125 28.0453 152.149 28.0422L160.119 27.5113C160.144 27.5101 160.169 27.5038 160.193 27.4928C160.216 27.4817 160.236 27.4661 160.253 27.447C160.27 27.4278 160.283 27.4054 160.291 27.3812C160.299 27.3569 160.302 27.3313 160.3 27.3058L158.531 0.190395C158.536 0.166715 158.536 0.142131 158.53 0.118713C158.523 0.0952948 158.512 0.073731 158.495 0.0558422C158.479 0.0379535 158.458 0.024263 158.436 0.0159279C158.413 0.00759273 158.388 0.00485569 158.364 0.00794928ZM180.911 20.569C180.833 20.5222 180.741 20.5029 180.65 20.5141C180.56 20.5253 180.475 20.5663 180.411 20.6308C175.828 23.4695 170.682 23.3207 169.156 19.5274C174.246 20.1425 181.266 19.0845 180.987 13.0311C180.862 10.2938 177.94 6.44807 171.617 6.74055C164.985 7.04619 160.854 12.1057 161.113 17.735C161.171 19.1158 161.501 20.4717 162.084 21.7246C162.668 22.9775 163.493 24.1028 164.512 25.0359C165.532 25.9689 166.726 26.6914 168.025 27.1617C169.325 27.632 170.705 27.841 172.085 27.7765C177.716 27.5179 180.704 22.8195 181.055 21.1807C181.154 20.8283 181.071 20.6776 180.911 20.569ZM170.487 11.5452C170.761 11.3564 171.07 11.2239 171.396 11.1554L171.512 11.1503C171.522 11.1497 171.532 11.1452 171.539 11.1376C171.546 11.1301 171.549 11.1201 171.549 11.1098C171.807 11.0717 172.069 11.0881 172.32 11.1578C172.57 11.2276 172.803 11.3492 173.004 11.5148C173.204 11.6804 173.368 11.8863 173.484 12.1191C173.6 12.3519 173.666 12.6065 173.677 12.8663C173.773 14.9482 172.135 16.2989 168.69 16.1487C168.756 14.2525 169.25 12.3752 170.487 11.5452ZM215.397 23.1152C211.104 21.1687 211.024 17.6574 209.393 15.6491C208.899 15.069 208.262 14.6294 207.544 14.3749C206.827 14.1204 206.055 14.06 205.306 14.1999C205.306 14.1999 205.692 14.2293 205.654 14.2302C205.929 12.796 206.31 10.9333 207.7 10.9008C209.127 10.8677 208.856 12.4956 208.871 13.0744C208.885 13.6532 209.893 13.9387 210.82 13.917C213.291 13.8597 215.03 12.3133 214.969 9.72785C214.911 7.18114 212.863 5.45285 210.046 5.51939C204.951 5.63694 202.588 11.9473 202.422 14.6924C202.336 14.7403 202.246 14.7811 202.153 14.8144C202.071 11.2643 201.994 7.94595 201.965 6.71116C201.961 6.51813 201.846 6.55951 201.846 6.55951L194.36 6.73349C194.339 6.73367 194.319 6.73793 194.3 6.74602C194.282 6.75412 194.265 6.76588 194.251 6.78062C194.237 6.79536 194.226 6.81277 194.219 6.83182C194.212 6.85086 194.208 6.87115 194.209 6.89149C194.219 7.2773 194.306 10.9824 194.397 14.995C194.296 14.9521 194.193 14.9159 194.087 14.8864C193.424 11.2725 191.176 5.95834 186.044 6.07777C183.227 6.14313 181.302 7.96406 181.36 10.5108C181.419 13.097 183.23 14.5598 185.661 14.5034C186.587 14.4818 187.584 14.1507 187.57 13.5709C187.556 12.9912 187.21 11.34 188.637 11.3454C190.222 11.347 190.532 13.1158 190.875 14.5365H190.835C189.133 14.3447 188.028 15.0267 187.168 16.1663C185.632 18.2482 185.715 21.7598 181.556 23.9028C180.947 24.2259 180.874 24.4201 181.546 25.1771C182.418 26.1606 184.337 27.2358 186.458 27.1864C194.484 26.9997 191.999 18.1001 194.465 17.8883C194.564 22.0944 194.651 25.9147 194.651 25.9147C194.648 25.9378 194.65 25.9614 194.656 25.9838C194.663 26.0063 194.674 26.0271 194.689 26.045C194.704 26.0628 194.723 26.0773 194.744 26.0875C194.765 26.0976 194.788 26.1032 194.811 26.1039L202.259 25.9307C202.282 25.9288 202.305 25.922 202.325 25.9108C202.346 25.8996 202.364 25.8842 202.378 25.8657C202.392 25.8471 202.401 25.8258 202.407 25.8031C202.412 25.7804 202.412 25.7569 202.407 25.7341C202.407 25.7341 202.32 21.9526 202.222 17.7079C204.622 17.9609 202.666 26.8093 210.615 26.6242C212.736 26.5749 214.6 25.412 215.428 24.3888C216.065 23.6017 215.983 23.4105 215.397 23.1152ZM237.039 17.9428C237.041 15.2797 237.048 6.51837 237.048 6.51837C237.052 6.49532 237.051 6.47173 237.045 6.44914C237.039 6.42655 237.029 6.40546 237.014 6.38726C236.999 6.36905 236.981 6.35413 236.96 6.34346C236.939 6.33279 236.917 6.32662 236.893 6.32535L229.483 6.31994C229.457 6.31929 229.432 6.32383 229.408 6.33329C229.384 6.34275 229.363 6.35693 229.345 6.37497C229.327 6.393 229.313 6.41451 229.303 6.43819C229.294 6.46188 229.289 6.48723 229.29 6.51273C229.29 6.51273 229.287 10.0629 229.285 13.5756L225.502 13.5731C225.502 12.6467 225.505 11.8746 225.505 11.3344C225.507 7.70638 223.231 5.46625 220.104 5.4639C217.943 5.46226 215.858 6.96602 215.432 8.20081C215.085 9.24258 217.711 7.93232 217.706 14.0689C217.704 16.7322 217.426 25.5319 217.426 25.5319C217.421 25.578 217.435 25.6242 217.464 25.6604C217.493 25.6965 217.535 25.7197 217.581 25.7249L225.3 25.7306C225.354 25.7196 225.402 25.6907 225.437 25.6486C225.472 25.6065 225.492 25.5538 225.493 25.499C225.493 25.499 225.495 21.7939 225.5 18.0886L229.28 18.0914V20.6776C229.276 24.3056 231.552 26.4686 234.679 26.4709C236.839 26.4726 238.925 25.0459 239.313 23.8497C239.698 22.7701 237.034 24.0803 237.039 17.9438V17.9428ZM260.505 16.551C260.616 10.7621 256.113 5.96586 249.902 5.84643C243.69 5.72699 239.005 10.3474 238.894 16.136C238.781 21.9634 243.284 26.7213 249.497 26.8405C255.827 26.9623 260.392 22.3793 260.505 16.5519V16.551ZM246.497 16.282C246.561 12.9632 247.541 10.1637 249.817 10.2075C252.055 10.2503 252.965 13.0862 252.902 16.405C252.838 19.8011 251.898 22.5242 249.582 22.4795C247.344 22.4376 246.434 19.5246 246.497 16.2829V16.282ZM272.313 11.4152C271.713 13.6685 273.443 15.6752 275.602 15.7688C277.53 15.8522 279.371 14.3865 279.921 12.363C279.961 12.3646 280.001 12.3277 282.004 12.4532L281.595 21.9004C281.437 25.5251 283.617 27.86 286.701 27.9937C288.86 28.0878 291.046 26.6753 291.523 25.4597C291.916 24.4337 289.236 25.6311 289.501 19.5002L289.779 13.1379L289.816 13.1395C291.885 13.538 295.986 13.4068 296.075 9.58608C296.094 9.21025 296.071 8.83348 296.007 8.46273C296.005 8.36232 295.966 8.26618 295.898 8.19218C295.83 8.11818 295.738 8.07137 295.638 8.06045C294.298 7.80912 284.515 6.2266 277.074 7.64243C275.646 6.73067 273.382 6.36226 271.685 6.32722C265.772 6.34157 261.255 10.7431 261.011 16.3727C260.946 17.7563 261.156 19.139 261.628 20.4412C262.1 21.7433 262.825 22.9392 263.762 23.9601C264.698 24.9809 265.827 25.8064 267.083 26.3892C268.34 26.972 269.699 27.3004 271.083 27.3557C276.711 27.5995 279.763 23.1731 280.294 21.5736C280.386 21.2299 280.316 21.0724 280.205 20.9517C280.125 20.8976 280.029 20.87 279.932 20.8727C279.835 20.8754 279.742 20.9083 279.664 20.9668C275.63 23.1486 269.042 23.6358 268.722 16.7068C268.577 13.8418 269.722 10.6076 271.805 10.6979C272.046 10.6998 272.282 10.7631 272.491 10.882C272.447 11.0346 272.407 11.0715 272.313 11.4152ZM307.72 13.2773C306.687 13.2159 305.651 13.2368 304.621 13.3396C304.781 10.9518 304.906 9.10316 304.906 9.10316C304.913 9.05321 304.903 9.00229 304.878 8.95852C304.853 8.91476 304.814 8.88068 304.767 8.8617L297.335 8.36139C297.291 8.36959 297.251 8.39173 297.221 8.42454C297.19 8.45735 297.171 8.49909 297.166 8.5436C297.171 8.50504 296.557 17.5937 296.381 20.2126C296.143 23.7557 297.9 28.7094 305.023 29.1893C310.146 29.5339 314.846 26.368 315.18 21.4008C315.486 16.8564 311.839 13.5547 307.72 13.2773ZM305.632 24.7426C304.285 24.6519 304.029 23.2805 304.043 21.9274C304.132 20.5796 304.257 18.73 304.384 16.8439C304.641 16.8145 304.901 16.8061 305.16 16.8188C306.892 16.9363 308.066 18.4845 307.915 20.7183C307.774 22.7978 307.25 24.8515 305.632 24.7426ZM344.352 18.8155C344.037 18.8626 343.466 20.3581 341.75 20.8506C338.639 21.7504 336.187 18.6427 333.281 17.4296C329.961 16.0603 327.533 17.5304 326.945 19.5674C326.298 21.8313 328.332 23.6583 329.83 23.415C330.067 23.3607 330.744 21.9916 332.392 21.3764C335.611 20.1773 337.896 23.8109 340.894 24.8778C344.604 26.2076 346.478 24.4894 347.04 22.6829C347.722 20.4613 345.73 18.6004 344.352 18.8155Z" fill="white"/>
</svg>
