<svg width="150" height="50" viewBox="0 0 150 50" fill="none" xmlns="http://www.w3.org/2000/svg">
<rect width="150" height="50" rx="25" fill="white"/>
<path fill-rule="evenodd" clip-rule="evenodd" d="M93.9449 24.0155C93.9561 24.614 94.4539 25.0951 95.0525 25.0951C95.651 25.0951 96.1489 24.614 96.1489 24.0155V21.543H99.7625V24.0155C99.7625 24.614 100.271 25.0951 100.87 25.0951C101.469 25.0951 101.966 24.614 101.966 24.0155V16.8946C101.966 16.2961 101.457 15.815 100.859 15.815C100.26 15.815 99.7625 16.2961 99.7625 16.8946V19.3671H96.1377V16.8946C96.1377 16.2961 95.6398 15.815 95.0413 15.815C94.4427 15.815 93.9449 16.2961 93.9449 16.8946V24.0155ZM67.654 18.0805V24.0155C67.654 24.6252 68.1631 25.0951 68.7672 25.0951C69.3825 25.0951 69.8804 24.6196 69.8804 24.0155V18.0805H71.5473C72.157 18.0805 72.6437 17.5994 72.6437 16.9897C72.6437 16.4023 72.1515 15.9101 71.5473 15.9101H65.9871C65.3774 15.9101 64.8907 16.4023 64.8907 16.9897C64.8907 17.5994 65.383 18.0805 65.9871 18.0805H67.654ZM59.901 20.7655L57.3223 16.3576C57.0258 15.8597 56.4049 15.6807 55.8679 15.9213C55.3253 16.2345 55.1519 16.8946 55.4651 17.4204L58.5417 22.6171C58.1669 22.8632 57.7642 22.9527 57.3279 22.9862C56.7293 23.0422 56.3266 23.4673 56.3266 24.0323C56.3266 24.7035 56.8692 25.0783 57.423 25.0783C58.6704 25.0783 59.7612 24.4462 60.5499 23.5624C61.2659 22.7569 61.8085 21.7388 62.3175 20.7879L64.1299 17.3869C64.404 16.861 64.2362 16.173 63.6768 15.9045C63.151 15.6528 62.5077 15.8765 62.228 16.3967L59.901 20.7655ZM103.723 20.4634C103.723 23.1261 105.697 25.0951 108.377 25.0951C111.056 25.0951 113.031 23.1149 113.031 20.4634C113.031 17.8008 111.04 15.8206 108.377 15.8206C105.697 15.8206 103.723 17.8008 103.723 20.4634ZM110.799 20.4634C110.799 21.8843 109.815 22.9527 108.371 22.9527C106.923 22.9527 105.944 21.8787 105.944 20.4634C105.944 19.0426 106.928 17.963 108.371 17.963C109.82 17.963 110.799 19.0426 110.799 20.4634ZM120.605 18.0861C121.215 18.0861 121.696 17.6106 121.696 17.0177C121.696 16.4359 121.215 15.9437 120.605 15.9437H118.944C116.231 15.9437 114.301 17.8791 114.301 20.4802C114.301 23.0758 116.231 25.0168 118.944 25.0168H120.605C121.215 25.0168 121.696 24.5413 121.696 23.9428C121.696 23.361 121.215 22.8688 120.605 22.8688H118.882C117.433 22.8688 116.482 21.8507 116.482 20.4746C116.482 19.0986 117.439 18.0805 118.882 18.0805H120.605V18.0861ZM80.1618 24.7763C80.5701 25.1958 81.2582 25.2126 81.6777 24.793C82.086 24.3903 82.1308 23.6967 81.7224 23.2771L78.9255 20.3907L81.6106 17.6162C82.0133 17.1967 81.9742 16.5086 81.5658 16.1171C81.1575 15.6975 80.4694 15.7143 80.0667 16.1338L77.2922 18.9923C77.0516 19.244 76.8838 19.2776 76.7048 19.2776C76.4307 19.2776 76.1958 19.0874 76.1958 18.8021V16.8946C76.1958 16.2961 75.6979 15.815 75.0994 15.815C74.5008 15.815 74.003 16.2961 74.003 16.8946V24.0211C74.003 24.6196 74.5008 25.1007 75.0994 25.1007C75.6979 25.1007 76.1958 24.6196 76.1958 24.0211V21.9961C76.1958 21.7221 76.4307 21.5319 76.7048 21.5319C76.8838 21.5319 77.0516 21.5654 77.2922 21.8171L80.1618 24.7763ZM82.8915 20.4634C82.8915 23.1261 84.8662 25.0951 87.5456 25.0951C90.225 25.0951 92.1996 23.1149 92.1996 20.4634C92.1996 17.8008 90.2082 15.8206 87.5456 15.8206C84.8662 15.8206 82.8915 17.8008 82.8915 20.4634ZM89.9733 20.4634C89.9733 21.8843 88.9888 22.9527 87.5456 22.9527C86.0968 22.9527 85.1179 21.8787 85.1179 20.4634C85.1179 19.0426 86.1024 17.963 87.5456 17.963C88.9888 17.963 89.9733 19.0426 89.9733 20.4634ZM124.42 19.5908C125.007 19.5908 125.528 19.1097 125.528 18.4776C125.528 17.8679 125.007 17.3813 124.42 17.3813C123.816 17.3813 123.307 17.8735 123.307 18.4776C123.301 19.1041 123.81 19.5908 124.42 19.5908ZM124.42 23.5456C125.007 23.5456 125.528 23.0478 125.528 22.4325C125.528 21.8227 125.007 21.3417 124.42 21.3417C123.816 21.3417 123.307 21.8227 123.307 22.4325C123.301 23.0422 123.81 23.5456 124.42 23.5456Z" fill="#13A538"/>
<path d="M57.1489 29.8386C58.2173 29.8386 58.8047 30.633 58.8047 31.6119C58.8047 32.5908 58.2229 33.3851 57.1489 33.3851C56.0805 33.3851 55.4931 32.5908 55.4931 31.6119C55.4987 30.633 56.0805 29.8386 57.1489 29.8386ZM57.1489 33.0215C57.9264 33.0215 58.4019 32.4733 58.4019 31.6119C58.4019 30.7504 57.9264 30.2022 57.1489 30.2022C56.3713 30.2022 55.8959 30.7504 55.8959 31.6119C55.8959 32.4733 56.3713 33.0215 57.1489 33.0215Z" fill="black"/>
<path d="M62.3959 29.9114C62.5301 29.9114 62.5916 30.0177 62.5916 30.1351V33.0943C62.5916 33.2117 62.5301 33.318 62.3959 33.318C62.2616 33.318 62.2001 33.2117 62.2001 33.0943V31.7406H60.1583V33.0943C60.1583 33.2117 60.0968 33.318 59.9625 33.318C59.8283 33.318 59.7668 33.2117 59.7668 33.0943V30.1351C59.7668 30.0177 59.8283 29.9114 59.9625 29.9114C60.0968 29.9114 60.1583 30.0177 60.1583 30.1351V31.377H62.2001V30.1351C62.2001 30.0121 62.2616 29.9114 62.3959 29.9114Z" fill="black"/>
<path d="M63.8782 32.6132C64.074 32.1098 64.1579 31.1085 64.1915 30.0848C64.1915 29.9785 64.2698 29.9114 64.3817 29.9114H66.0654C66.2053 29.9114 66.2724 30.0065 66.2724 30.124V33.0943C66.2724 33.2117 66.2108 33.318 66.0766 33.318C65.9423 33.318 65.8808 33.2117 65.8808 33.0943V30.2694H64.5551C64.5159 31.0469 64.46 32.1881 64.1915 32.8146C64.0237 33.2061 63.7831 33.3516 63.5034 33.3516C63.3636 33.3516 63.207 33.2956 63.2238 33.1278C63.2461 32.9656 63.3468 32.9768 63.4755 32.9768C63.6601 32.9768 63.7943 32.8202 63.8782 32.6132Z" fill="black"/>
<path d="M67.4974 30.3533C67.4415 30.219 67.5086 30.1463 67.6149 30.0904C67.8722 29.9561 68.3085 29.8386 68.7225 29.8386C69.6342 29.8386 70.009 30.3029 70.009 31.0693V33.0942C70.009 33.2117 69.9475 33.318 69.8133 33.318C69.679 33.318 69.6175 33.2117 69.6175 33.0942V32.574C69.4497 32.9656 69.0413 33.3851 68.2917 33.3851C67.6261 33.3851 67.1674 33.0439 67.1674 32.3726C67.1674 31.4776 67.9785 31.2259 68.7113 31.2259C69.1028 31.2259 69.3713 31.2595 69.6231 31.293V31.0972C69.6231 30.5491 69.3434 30.2022 68.6889 30.2022C68.3477 30.2022 68.096 30.2861 67.8107 30.398C67.6932 30.4428 67.5478 30.4707 67.4974 30.3533ZM69.6175 31.7741V31.6398C69.3322 31.6007 69.1308 31.5727 68.7616 31.5727C68.0736 31.5727 67.5645 31.7797 67.5645 32.3559C67.5645 32.753 67.8275 33.0215 68.3365 33.0215C69.2091 33.0215 69.6175 32.3055 69.6175 31.7741Z" fill="black"/>
<path d="M71.3851 33.2173C71.346 33.2677 71.2788 33.3124 71.1837 33.3124C71.0495 33.3124 70.988 33.2061 70.988 33.0887V30.1295C70.988 30.0121 71.0495 29.9058 71.1837 29.9058C71.318 29.9058 71.3795 30.0121 71.3795 30.1295V32.6803L73.4716 30.0065C73.5275 29.9449 73.5835 29.9114 73.6674 29.9114C73.8016 29.9114 73.8632 30.0176 73.8632 30.1351V33.0942C73.8632 33.2117 73.8016 33.318 73.6674 33.318C73.5331 33.318 73.4716 33.2117 73.4716 33.0942V30.5658L71.3851 33.2173ZM71.5026 28.843C71.4634 28.7367 71.4634 28.6248 71.5585 28.5744C71.6704 28.5129 71.7655 28.5856 71.8214 28.6863C71.9445 28.9101 72.1403 29.0779 72.4479 29.0779C72.7556 29.0779 72.9458 28.9101 73.0745 28.6863C73.1304 28.5912 73.2255 28.5185 73.3374 28.5744C73.4324 28.6248 73.4325 28.7423 73.3933 28.843C73.2982 29.0891 72.9849 29.4135 72.4479 29.4135C71.9165 29.4135 71.6033 29.0891 71.5026 28.843Z" fill="black"/>
<path d="M77.4879 29.9114C77.6222 29.9114 77.6837 30.0177 77.6837 30.1351V33.0943C77.6837 33.2117 77.6222 33.318 77.4879 33.318C77.3537 33.318 77.2922 33.2117 77.2922 33.0943V31.7406H75.2504V33.0943C75.2504 33.2117 75.1889 33.318 75.0546 33.318C74.9204 33.318 74.8588 33.2117 74.8588 33.0943V30.1351C74.8588 30.0177 74.9204 29.9114 75.0546 29.9114C75.1889 29.9114 75.2504 30.0177 75.2504 30.1351V31.377H77.2922V30.1351C77.2977 30.0121 77.3593 29.9114 77.4879 29.9114Z" fill="black"/>
<path d="M78.8025 31.4385C78.8025 31.3322 78.8808 31.2595 78.9927 31.2595H80.8162C80.9281 31.2595 81.0064 31.3378 81.0064 31.4385C81.0064 31.5504 80.9281 31.6175 80.8162 31.6175H78.9927C78.8808 31.6175 78.8025 31.5504 78.8025 31.4385Z" fill="black"/>
<path d="M82.5112 33.0943C82.5112 33.2117 82.4497 33.318 82.3154 33.318C82.1811 33.318 82.1196 33.2117 82.1196 33.0943V30.1351C82.1196 30.0177 82.1811 29.9114 82.3154 29.9114H84.0047C84.1166 29.9114 84.1949 29.9897 84.1949 30.0904C84.1949 30.2023 84.1166 30.2694 84.0047 30.2694H82.5112V33.0943Z" fill="black"/>
<path d="M85.3808 33.2173C85.3416 33.2676 85.2745 33.3124 85.1794 33.3124C85.0452 33.3124 84.9836 33.2061 84.9836 33.0886V30.1295C84.9836 30.012 85.0452 29.9058 85.1794 29.9058C85.3137 29.9058 85.3752 30.012 85.3752 30.1295V32.6803L87.4673 30.0065C87.5232 29.9449 87.5791 29.9114 87.6631 29.9114C87.7973 29.9114 87.8588 30.0176 87.8588 30.1351V33.0942C87.8588 33.2117 87.7973 33.318 87.6631 33.318C87.5288 33.318 87.4673 33.2117 87.4673 33.0942V30.5658L85.3808 33.2173Z" fill="black"/>
<path d="M89.3859 30.2694V33.0943C89.3859 33.2117 89.3244 33.318 89.1901 33.318C89.0559 33.318 88.9944 33.2117 88.9944 33.0943V30.1351C88.9944 30.0177 89.0615 29.9114 89.1846 29.9114H91.5228C91.657 29.9114 91.7242 30.0177 91.7242 30.1351V33.0943C91.7242 33.2117 91.6626 33.318 91.5284 33.318C91.3941 33.318 91.3326 33.2117 91.3326 33.0943V30.2694H89.3859Z" fill="black"/>
<path d="M95.0189 32.8145C95.142 32.753 95.2427 32.753 95.2986 32.8481C95.3545 32.9432 95.3042 33.0495 95.2147 33.111C94.9294 33.3012 94.5378 33.3795 94.1575 33.3795C93.0723 33.3795 92.552 32.7138 92.552 31.6286C92.552 30.605 93.1282 29.833 94.1351 29.833C95.0525 29.833 95.4608 30.4875 95.4608 31.1532C95.4608 31.2595 95.4552 31.3601 95.4384 31.4496C95.4105 31.6566 95.321 31.7909 95.0693 31.7909H92.9436C92.9995 32.5852 93.4303 33.0159 94.1519 33.0159C94.4931 33.0215 94.7616 32.9376 95.0189 32.8145ZM92.9492 31.4496H95.086C95.0972 31.3601 95.0972 31.2706 95.0972 31.1867C95.086 30.6162 94.7784 30.2022 94.1127 30.2022C93.4359 30.2022 93.0051 30.6441 92.9492 31.4496Z" fill="black"/>
<path d="M99.3933 31.5056C99.3933 32.5125 98.9066 33.3851 97.7599 33.3851C97.3907 33.3851 97.0551 33.318 96.7921 33.167V34.4815C96.7921 34.599 96.7306 34.7052 96.5964 34.7052C96.4621 34.7052 96.4006 34.599 96.4006 34.4815V30.1295C96.4006 30.012 96.4621 29.9058 96.5964 29.9058C96.7306 29.9058 96.7921 30.012 96.7921 30.1295V30.6945C97.0159 30.1295 97.4522 29.8386 98.0563 29.8386C98.9569 29.8386 99.3933 30.5323 99.3933 31.5056ZM96.7921 32.0985V32.781C97.0886 32.9544 97.3963 33.0271 97.7655 33.0271C98.6884 33.0271 98.9905 32.3167 98.9905 31.5112C98.9905 30.756 98.6996 30.2022 98.0004 30.2022C96.9879 30.2022 96.7921 31.2371 96.7921 32.0985Z" fill="black"/>
<path d="M100.417 29.9114C100.529 29.9114 100.59 29.9673 100.663 30.0736L101.849 31.7518L103.068 30.0904C103.147 29.9841 103.214 29.917 103.331 29.917C103.466 29.917 103.51 30.0289 103.51 30.1407V33.0999C103.51 33.2173 103.449 33.3236 103.314 33.3236C103.18 33.3236 103.119 33.2173 103.119 33.0999V30.5826L102.011 32.1042C101.899 32.2664 101.726 32.244 101.631 32.1042L100.59 30.6386V33.0999C100.59 33.2173 100.54 33.3236 100.411 33.3236C100.277 33.3236 100.232 33.2173 100.232 33.0999V30.1407C100.227 30.0065 100.283 29.9114 100.417 29.9114Z" fill="black"/>
<path d="M104.747 30.3533C104.691 30.219 104.758 30.1463 104.864 30.0904C105.121 29.9561 105.558 29.8386 105.972 29.8386C106.883 29.8386 107.258 30.3029 107.258 31.0693V33.0942C107.258 33.2117 107.197 33.318 107.062 33.318C106.928 33.318 106.867 33.2117 106.867 33.0942V32.574C106.699 32.9656 106.29 33.3851 105.541 33.3851C104.875 33.3851 104.417 33.0439 104.417 32.3726C104.417 31.4776 105.228 31.2259 105.96 31.2259C106.352 31.2259 106.62 31.2595 106.872 31.293V31.0972C106.872 30.5491 106.592 30.2022 105.938 30.2022C105.597 30.2022 105.345 30.2861 105.06 30.398C104.942 30.4428 104.797 30.4707 104.747 30.3533ZM106.867 31.7741V31.6398C106.581 31.6007 106.38 31.5727 106.011 31.5727C105.323 31.5727 104.814 31.7797 104.814 32.3559C104.814 32.753 105.077 33.0215 105.586 33.0215C106.458 33.0215 106.867 32.3055 106.867 31.7741Z" fill="black"/>
<path d="M111.235 31.5056C111.235 32.5125 110.749 33.3851 109.602 33.3851C109.233 33.3851 108.897 33.318 108.634 33.167V34.4815C108.634 34.599 108.573 34.7052 108.438 34.7052C108.304 34.7052 108.243 34.599 108.243 34.4815V30.1295C108.243 30.012 108.304 29.9058 108.438 29.9058C108.573 29.9058 108.634 30.012 108.634 30.1295V30.6945C108.858 30.1295 109.294 29.8386 109.898 29.8386C110.799 29.8386 111.235 30.5323 111.235 31.5056ZM108.634 32.0985V32.781C108.931 32.9544 109.238 33.0271 109.608 33.0271C110.531 33.0271 110.833 32.3167 110.833 31.5112C110.833 30.756 110.542 30.2022 109.842 30.2022C108.83 30.2022 108.634 31.2371 108.634 32.0985Z" fill="black"/>
<path d="M112.399 29.9114C112.533 29.9114 112.595 30.0177 112.595 30.1351V31.4833L114.105 30.0009C114.2 29.9058 114.312 29.8778 114.401 29.9673C114.469 30.0345 114.463 30.1575 114.368 30.2526L112.964 31.5728L114.53 32.9544C114.62 33.0383 114.648 33.1614 114.569 33.2509C114.485 33.3572 114.345 33.3068 114.25 33.2229L112.595 31.735V33.0887C112.595 33.2061 112.533 33.3124 112.399 33.3124C112.265 33.3124 112.203 33.2061 112.203 33.0887V30.1296C112.203 30.0121 112.265 29.9114 112.399 29.9114Z" fill="black"/>
<path d="M117.735 32.8145C117.858 32.753 117.959 32.753 118.015 32.8481C118.071 32.9432 118.021 33.0495 117.931 33.111C117.646 33.3012 117.254 33.3795 116.874 33.3795C115.789 33.3795 115.268 32.7138 115.268 31.6286C115.268 30.605 115.845 29.833 116.852 29.833C117.769 29.833 118.177 30.4875 118.177 31.1532C118.177 31.2595 118.172 31.3601 118.155 31.4496C118.127 31.6566 118.037 31.7909 117.786 31.7909H115.66C115.716 32.5852 116.147 33.0159 116.868 33.0159C117.21 33.0215 117.478 32.9376 117.735 32.8145ZM115.666 31.4496H117.802C117.814 31.3601 117.814 31.2706 117.814 31.1867C117.802 30.6162 117.495 30.2022 116.829 30.2022C116.152 30.2022 115.722 30.6441 115.666 31.4496Z" fill="black"/>
<path d="M120.46 33.0943C120.46 33.2117 120.398 33.318 120.264 33.318C120.129 33.318 120.068 33.2117 120.068 33.0943V30.2694H118.955C118.843 30.2694 118.765 30.2023 118.765 30.0904C118.765 29.9841 118.843 29.9114 118.955 29.9114H121.567C121.679 29.9114 121.757 29.9897 121.757 30.0904C121.757 30.2023 121.679 30.2694 121.567 30.2694H120.454V33.0943H120.46Z" fill="black"/>
<path fill-rule="evenodd" clip-rule="evenodd" d="M47.7625 14.8137C47.7625 13.2586 46.5039 12 44.9488 12H26.8137C25.2586 12 24 13.2586 24 14.8137V26.1188C24 32.6803 29.3197 38 35.8812 38C42.4428 38 47.7625 32.6803 47.7625 26.1188C47.7625 21.6213 47.7681 19.3167 47.7625 14.8137Z" fill="#FEC800"/>
<path fill-rule="evenodd" clip-rule="evenodd" d="M35.0981 29.2625C35.0981 28.6472 34.5946 28.1549 33.9681 28.1549C33.3528 28.1549 32.8605 28.6472 32.8605 29.2625C32.8605 29.8778 33.3528 30.3813 33.9681 30.3813C34.5946 30.3813 35.0981 29.8778 35.0981 29.2625ZM39.0697 29.2625C39.0697 28.6472 38.5662 28.1549 37.9509 28.1549C37.3356 28.1549 36.8322 28.6472 36.8322 29.2625C36.8322 29.8778 37.3356 30.3813 37.9509 30.3813C38.5662 30.3813 39.0697 29.8778 39.0697 29.2625Z" fill="black"/>
</svg>
