<svg width="1920" height="422" viewBox="0 0 1920 422" fill="none" xmlns="http://www.w3.org/2000/svg">
<path d="M-40 7.62942e-06C-40 7.62942e-06 425.385 80 703.077 80C980.769 80 1083.85 10 1356.92 10C1630 9.99997 1960 60 1960 60V92H-40V7.62942e-06Z" fill="#7D6FAA"/>
<path d="M-40 5C-40 5 425.385 85 703.077 85C980.769 85 1083.85 15 1356.92 15C1630 15 1960 65 1960 65V417H-40V5Z" fill="#4F378D"/>
<path d="M-40 330C-40 330 425.385 410 703.077 410C980.769 410 1083.85 340 1356.92 340C1630 340 1960 390 1960 390V422H-40V330Z" fill="#7D6FAA"/>
</svg>
